<svg width="96" height="30" viewBox="0 0 96 30" fill="none" xmlns="http://www.w3.org/2000/svg">
<g clip-path="url(#clip0_940_1407)">
<g clip-path="url(#clip1_940_1407)">
<path d="M0 0H30.9904V30H0V0Z" fill="#938CA2"/>
<path fill-rule="evenodd" clip-rule="evenodd" d="M0 0H30.9904V9.84346L0 5.15654V0Z" fill="#938CA2"/>
<path fill-rule="evenodd" clip-rule="evenodd" d="M0 26.7123L30.9904 22.0254V29.9904H0V26.7123Z" fill="#938CA2"/>
<path fill-rule="evenodd" clip-rule="evenodd" d="M0 4.56738L10.8213 6.20643C12.1704 5.3777 13.7682 4.9265 15.5 4.9265C17.892 4.9265 20.0448 5.79206 21.6139 7.32061C21.8148 7.51398 21.9966 7.71655 22.1688 7.91913L30.9904 9.25431V10.4422L23.0586 9.2451C23.6519 10.3409 23.9676 11.5655 23.9676 12.7994C23.9676 14.4108 23.5944 16.0131 22.829 17.6153L22.8099 17.6613L22.4846 18.3335H21.7096C20.1213 18.3335 19.0593 18.7939 18.3704 19.6134C17.825 20.258 17.5188 21.1236 17.4136 22.0628V22.0904L17.3944 22.2377L17.3849 22.3022L17.3753 22.4311C17.337 22.8547 17.3083 23.2046 17.2988 23.4992L31 21.4274V22.6153L0 27.3114V26.1236L13.7204 24.0517L13.7108 23.7847V23.711V23.6742V23.6189C13.6917 23.2046 13.663 22.7902 13.6151 22.3759L13.6056 22.2838L13.5864 22.118C13.4907 21.1696 13.175 20.2948 12.6392 19.641C11.9599 18.8215 10.9074 18.3519 9.3287 18.3427H8.51543L8.19012 17.6705C7.40556 16.0407 7.02284 14.4293 7.02284 12.7994C7.02284 10.7552 7.87438 8.78469 9.38611 7.32061C9.43395 7.27457 9.47222 7.23773 9.52006 7.19169L0 5.74602V4.56738Z" fill="#F4F7FE"/>
<path fill-rule="evenodd" clip-rule="evenodd" d="M15.5001 6.0957C19.8248 6.0957 22.7622 9.31854 22.7622 12.7992C22.7622 14.1988 22.4464 15.6445 21.7097 17.1731C17.452 17.1731 16.3995 20.1289 16.1986 21.9797L16.189 22.0994C16.122 22.7624 16.0838 23.2964 16.0742 23.6924L14.9165 23.8673V23.8305C14.9165 23.4069 14.8686 22.8176 14.7921 22.0626V22.0257C14.6103 20.1749 13.577 17.1638 9.28098 17.1638C8.54426 15.6445 8.22852 14.1896 8.22852 12.79C8.22852 9.31854 11.1659 6.0957 15.5001 6.0957Z" fill="#938CA2"/>
</g>
<path fill-rule="evenodd" clip-rule="evenodd" d="M45.7447 7.34766C41.9911 7.34766 39.1879 9.58522 39.2071 13.4803H42.6919C42.6439 11.9241 43.6519 10.414 45.7447 10.414C47.3287 10.414 48.3367 11.4545 48.3367 12.7712C48.3367 14.1432 47.2327 14.8983 45.4567 15.7454C43.1239 16.8504 41.7319 17.3753 39.2071 18.1948V22.6791H52.1863V19.6128H43.9207C45.1207 19.1156 46.3015 18.5815 47.3575 18.0843C50.1703 16.7675 51.8311 15.2758 51.8311 12.6147C51.8311 9.40106 49.3735 7.34766 45.7447 7.34766ZM57.4759 10.6534H64.2055V7.58707H54.1159V22.6791H57.4759V10.6534ZM69.4951 7.58707H66.1351V22.6791H69.4759L75.7447 13.0383V22.6791H79.1047V7.58707H75.7447L69.4951 17.228V7.58707ZM96.0007 17.0162H92.5159C91.9879 18.692 90.3751 19.8431 88.4743 19.8431C85.7095 19.8431 83.9047 17.5042 83.9047 15.1285C83.9047 12.7528 85.6615 10.414 88.5703 10.414C90.4903 10.414 91.9783 11.5742 92.5159 13.2408H96.0007C95.4919 9.87068 92.7847 7.34766 88.4743 7.34766C83.7127 7.34766 80.5447 10.6257 80.5447 15.1285C80.5447 19.6313 83.7127 22.9094 88.4743 22.9094C92.7847 22.9186 95.4919 20.4416 96.0007 17.0162Z" fill="#938CA2"/>
</g>
<defs>
<clipPath id="clip0_940_1407">
<rect width="96" height="30" fill="white"/>
</clipPath>
<clipPath id="clip1_940_1407">
<rect width="31" height="30" rx="4" fill="white"/>
</clipPath>
</defs>
</svg>
