<svg width="44" height="45" viewBox="0 0 44 45" fill="none" xmlns="http://www.w3.org/2000/svg">
<path d="M10.3125 14.2656V28.5312L11.6703 28.5827C13.3203 28.6429 14.3258 28.8749 15.5977 29.4937C18.2531 30.7999 20.1008 33.2406 20.582 36.1023C20.6766 36.6609 20.6938 34.7015 20.7023 23.7874C20.7109 15.4171 20.6766 10.5359 20.625 10.0374C20.2812 7.08977 19.207 4.70071 17.4109 2.89602C16.543 2.03664 15.9328 1.58977 14.9102 1.08274C13.7242 0.489769 12.5297 0.171799 11.1031 0.0600815L10.3125 -7.62939e-05V14.2656Z" fill="#638BE9"/>
<path d="M5.15625 20.7279V36.2826L9.99453 36.317C15.3828 36.3514 15.4945 36.3686 17.325 37.0217L18.1414 37.3139L18.0813 36.824C17.8063 34.5553 16.1906 32.467 14.0336 31.6076C13.0539 31.2123 12.375 31.135 9.96875 31.135H7.73438V18.1584V5.18184H6.44531H5.15625V20.7279Z" fill="#638BE9"/>
<path d="M29.1336 7.85486C27.4922 8.04392 25.6102 8.60252 24.1664 9.33298L23.2812 9.77986L23.2898 24.2603C23.2898 32.2181 23.307 38.7408 23.3156 38.7494C23.3242 38.7666 23.668 38.5603 24.0633 38.3025C25.3695 37.4431 26.7273 36.876 28.1109 36.601C29.5117 36.3174 30.3883 36.2744 34.6164 36.283L38.8445 36.2916V22.026V7.76033L34.3156 7.76892C31.8148 7.77752 29.4859 7.81189 29.1336 7.85486Z" fill="#638BE9"/>
<path d="M0 25.893V41.4477H6.85781C11.1117 41.4477 13.9219 41.482 14.2656 41.5336C15.7867 41.7742 17.368 42.582 18.3906 43.6305L18.7688 44.0258H22H25.2313L25.6523 43.5961C26.443 42.7883 27.5859 42.118 28.8492 41.7313L29.6055 41.4906L36.807 41.4648L44 41.4391V27.182V12.9164H42.7109H41.4219V25.893V38.8695H35.8188C29.7344 38.8695 29.2703 38.8953 27.8438 39.3422C26.9156 39.6344 25.6781 40.2703 24.7672 40.932L24.0539 41.4477H22.0172H19.9805L19.1641 40.8805C18.15 40.1758 17.1102 39.6516 16.1562 39.3508C14.7297 38.8953 14.2742 38.8695 8.18984 38.8695H2.57812V24.6039V10.3383H1.28906H0V25.893Z" fill="#638BE9"/>
</svg>
