<svg width="40" height="44" viewBox="0 0 40 44" fill="none" xmlns="http://www.w3.org/2000/svg">
<path d="M18.2151 0.0802822C15.6886 0.363876 13.2565 1.24044 11.5292 2.47794C11.1339 2.76153 10.7987 2.99356 10.7901 2.99356C10.773 2.99356 10.6526 2.83028 10.5237 2.62403C9.8878 1.66153 8.65889 0.673252 7.57608 0.252157C7.32686 0.149033 7.11201 0.0716896 7.08623 0.0716896C7.04326 0.0716896 6.24405 2.48653 6.27842 2.50372C6.29561 2.51231 6.54483 2.63263 6.82842 2.77013C7.51592 3.09669 7.90264 3.41466 8.28936 3.98185C8.55576 4.36856 8.6503 4.61778 8.81358 5.417C9.07998 6.71466 9.38936 7.67716 9.84483 8.66544C10.5581 10.1865 11.2972 11.235 12.569 12.5154C15.1472 15.1279 18.9628 17.0014 23.612 17.9381C26.3706 18.4967 28.3644 18.6342 33.9761 18.6342H37.9206L37.869 16.9756C37.8175 15.1795 37.6886 14.217 37.2847 12.7045C36.0042 7.86622 32.7901 4.11075 27.969 1.82481C26.8347 1.28341 25.0815 0.681845 23.9042 0.41544C22.1597 0.0287209 19.8565 -0.100185 18.2151 0.0802822Z" fill="#638BE9"/>
<path d="M5.40131 6.25919C2.09272 8.61388 0.434122 12.4725 0.72631 17.1131L0.786466 18.1186H2.88334H4.98022L5.86537 17.6803C7.00834 17.1045 7.78178 16.5975 8.63256 15.8842C9.19975 15.3943 10.2997 14.217 10.3427 14.0537C10.3427 14.0279 10.0849 13.6842 9.75834 13.2889C8.12553 11.3381 6.7935 8.59669 6.34662 6.31935C6.28647 6.00138 6.20912 5.74356 6.17475 5.74356C6.14037 5.74356 5.79662 5.9756 5.40131 6.25919Z" fill="#638BE9"/>
<path d="M11.9419 16.1932C11.3919 16.9064 9.83644 18.333 9.02004 18.883C8.58176 19.1752 7.78254 19.6307 7.24972 19.8885L6.28722 20.3697L6.17551 20.9799C6.02941 21.8479 6.12394 24.0307 6.34738 25.0619C6.93176 27.7088 8.16066 29.9775 10.0513 31.8682C11.9505 33.7674 14.1849 34.9791 16.9005 35.5807C18.0607 35.8385 20.8536 35.8557 22.0825 35.6236C27.5052 34.5666 31.6646 30.4674 32.8333 25.0189C32.9622 24.4346 33.031 23.7385 33.0568 22.7072L33.0997 21.2377L32.7732 21.1861C32.5841 21.1518 31.4841 21.126 30.3153 21.126H28.1841V22.458V23.79H26.895H25.606V22.3463V20.8939L24.3857 20.7049C20.0544 20.0088 16.0325 18.4533 13.0591 16.3221C12.6552 16.0299 12.3114 15.7979 12.2857 15.7979C12.2599 15.8064 12.1052 15.9783 11.9419 16.1932ZM13.5747 22.501V23.79H12.2857H10.9966V22.501V21.2119H12.2857H13.5747V22.501ZM18.6193 25.9471C18.9028 26.0846 19.1693 26.1361 19.5903 26.1361C20.3036 26.1361 20.8193 25.9127 21.3349 25.3713L21.6958 25.0018L22.7185 25.5947C23.2771 25.9127 23.7669 26.2135 23.8099 26.2564C23.8528 26.2994 23.7153 26.5486 23.5005 26.815C21.5068 29.3588 17.6739 29.3588 15.6802 26.815C15.4739 26.5486 15.3278 26.2994 15.3708 26.2564C15.4052 26.2221 15.895 25.9213 16.4622 25.5947L17.4849 25.0018L17.863 25.3799C18.0693 25.5947 18.413 25.8439 18.6193 25.9471Z" fill="#638BE9"/>
<path d="M0.984065 20.9633C0.666096 21.3414 0.279377 22.1493 0.12469 22.7336C-0.0471851 23.3782 -0.0385913 24.4438 0.133284 25.1141C0.545784 26.7125 1.92078 28.1047 3.52781 28.543C3.99188 28.6719 4.80828 28.8094 4.80828 28.7578C4.80828 28.7407 4.67078 28.3539 4.5075 27.8985C3.79422 25.9047 3.56219 24.5469 3.56219 22.3985V20.6969H2.38485H1.2161L0.984065 20.9633Z" fill="#638BE9"/>
<path d="M35.6344 22.7336C35.5742 24.7274 35.325 26.068 34.6719 27.8985C34.5086 28.3539 34.3711 28.7407 34.3711 28.7578C34.3711 28.8094 35.1875 28.6719 35.6516 28.543C36.8461 28.2164 38.0836 27.2282 38.6422 26.1539C39.3641 24.7789 39.3727 23.1203 38.668 21.7282L38.4102 21.2125H37.0438H35.6859L35.6344 22.7336Z" fill="#638BE9"/>
<path d="M11.0133 36.7928C9.60391 38.2709 8.65 40.1787 8.28906 42.2412C8.22031 42.6451 8.16016 43.2037 8.16016 43.4787V43.9858H19.5898H31.0195V43.4787C31.0195 43.2037 30.9594 42.6451 30.8906 42.2412C30.5297 40.1787 29.5758 38.2709 28.1664 36.7928L27.6508 36.2686L27.0406 36.5951C25.743 37.2998 23.818 37.9358 22.082 38.2451C21.2227 38.3912 17.9656 38.3998 17.0977 38.2451C15.4047 37.9443 13.4367 37.2912 12.1391 36.5951L11.5289 36.2686L11.0133 36.7928Z" fill="#638BE9"/>
</svg>
