<svg width="80" height="80" viewBox="0 0 80 80" fill="none" xmlns="http://www.w3.org/2000/svg">
<rect width="80" height="80" rx="10" fill="white"/>
<path d="M40.5 10C23.6549 10 10 23.6549 10 40.5C10 44.3796 10.7991 48.311 12.1929 51.8429L14.575 56.7016C16.0847 59.84 15.5541 62.7985 13.5258 66.425C12.4065 68.4319 13.8033 70.8505 16.1 70.9054C19.2018 70.9756 24.1642 69.7007 28.1109 68.2367C31.7496 69.9172 36.4374 71 40.5 71C57.3451 71 71 57.3451 71 40.5C71 23.6549 57.3451 10 40.5 10ZM28.3 37.45C29.9836 37.45 31.35 38.8164 31.35 40.5C31.35 42.1836 29.9836 43.55 28.3 43.55C26.6164 43.55 25.25 42.1836 25.25 40.5C25.25 38.8164 26.6164 37.45 28.3 37.45ZM40.5 37.45C42.1836 37.45 43.55 38.8164 43.55 40.5C43.55 42.1836 42.1836 43.55 40.5 43.55C38.8164 43.55 37.45 42.1836 37.45 40.5C37.45 38.8164 38.8164 37.45 40.5 37.45ZM52.7 37.45C54.3836 37.45 55.75 38.8164 55.75 40.5C55.75 42.1836 54.3836 43.55 52.7 43.55C51.0164 43.55 49.65 42.1836 49.65 40.5C49.65 38.8164 51.0164 37.45 52.7 37.45Z" fill="#638BE9"/>
</svg>
