<svg width="564" height="203" viewBox="0 0 564 203" fill="none" xmlns="http://www.w3.org/2000/svg">
<path d="M442.902 50.1284C494.571 43.9779 500.754 38.1225 524.455 30.9091V169.509H17.972V153.022C29.2904 150.47 38.9765 147.842 53.1245 143.316C70.8094 137.658 137.305 110.367 179.042 95.058C220.778 79.7487 258.972 71.5898 294.348 67.1018C352.061 59.78 384.187 57.1175 442.902 50.1284Z" fill="url(#paint0_linear_940_1222)" fill-opacity="0.32"/>
<path d="M451.23 197.385C450.395 197.379 449.58 197.235 448.784 196.95C447.989 196.661 447.273 196.192 446.637 195.544C446 194.891 445.495 194.024 445.12 192.945C444.745 191.86 444.56 190.516 444.566 188.914C444.566 187.419 444.725 186.087 445.043 184.916C445.361 183.746 445.818 182.757 446.415 181.95C447.012 181.138 447.73 180.519 448.571 180.093C449.418 179.666 450.364 179.453 451.409 179.453C452.506 179.453 453.478 179.669 454.324 180.101C455.176 180.533 455.864 181.124 456.387 181.874C456.909 182.618 457.233 183.459 457.358 184.396H454.247C454.088 183.726 453.762 183.192 453.267 182.794C452.779 182.391 452.159 182.189 451.409 182.189C450.199 182.189 449.267 182.715 448.614 183.766C447.966 184.817 447.64 186.26 447.634 188.095H447.753C448.032 187.595 448.392 187.166 448.836 186.808C449.279 186.45 449.779 186.175 450.336 185.982C450.898 185.783 451.492 185.683 452.117 185.683C453.14 185.683 454.057 185.928 454.87 186.416C455.688 186.905 456.336 187.578 456.813 188.436C457.29 189.289 457.526 190.266 457.52 191.368C457.526 192.516 457.265 193.547 456.736 194.462C456.208 195.371 455.472 196.087 454.529 196.61C453.586 197.132 452.486 197.391 451.23 197.385ZM451.213 194.828C451.833 194.828 452.387 194.678 452.875 194.377C453.364 194.075 453.75 193.669 454.034 193.158C454.318 192.646 454.458 192.073 454.452 191.436C454.458 190.811 454.321 190.246 454.043 189.74C453.77 189.235 453.392 188.834 452.909 188.539C452.426 188.243 451.875 188.095 451.256 188.095C450.796 188.095 450.367 188.183 449.969 188.36C449.571 188.536 449.225 188.78 448.929 189.093C448.634 189.399 448.401 189.757 448.23 190.166C448.066 190.57 447.98 191.002 447.975 191.462C447.98 192.07 448.122 192.629 448.401 193.141C448.679 193.652 449.063 194.061 449.551 194.368C450.04 194.675 450.594 194.828 451.213 194.828ZM471.922 193.558L475.809 184.056H478.297L473.005 197.146H470.848L465.675 184.056H468.138L471.922 193.558ZM467.363 184.056V197.146H464.388V184.056H467.363ZM476.61 197.146V184.056H479.559V197.146H476.61ZM487.465 197.402C486.152 197.402 485.019 197.129 484.064 196.584C483.115 196.033 482.385 195.254 481.874 194.249C481.363 193.237 481.107 192.047 481.107 190.678C481.107 189.331 481.363 188.149 481.874 187.132C482.391 186.11 483.113 185.314 484.039 184.746C484.965 184.172 486.053 183.885 487.303 183.885C488.11 183.885 488.871 184.016 489.587 184.277C490.309 184.533 490.945 184.931 491.496 185.47C492.053 186.01 492.49 186.698 492.809 187.533C493.127 188.362 493.286 189.351 493.286 190.499V191.445H482.556V189.365H490.328C490.323 188.774 490.195 188.249 489.945 187.789C489.695 187.323 489.345 186.956 488.897 186.689C488.453 186.422 487.936 186.289 487.345 186.289C486.715 186.289 486.161 186.442 485.684 186.749C485.206 187.05 484.834 187.448 484.567 187.942C484.306 188.431 484.172 188.968 484.166 189.553V191.368C484.166 192.129 484.306 192.783 484.584 193.328C484.863 193.868 485.252 194.283 485.752 194.573C486.252 194.857 486.837 194.999 487.507 194.999C487.956 194.999 488.363 194.936 488.726 194.811C489.09 194.681 489.405 194.49 489.672 194.24C489.939 193.99 490.141 193.681 490.277 193.311L493.158 193.635C492.976 194.396 492.63 195.061 492.118 195.629C491.613 196.192 490.965 196.629 490.175 196.942C489.385 197.249 488.482 197.402 487.465 197.402ZM500.606 197.402C499.299 197.402 498.177 197.115 497.24 196.541C496.308 195.968 495.589 195.175 495.083 194.164C494.583 193.146 494.333 191.976 494.333 190.652C494.333 189.323 494.589 188.149 495.1 187.132C495.612 186.11 496.333 185.314 497.265 184.746C498.203 184.172 499.311 183.885 500.589 183.885C501.652 183.885 502.592 184.081 503.41 184.473C504.234 184.86 504.89 185.408 505.379 186.118C505.867 186.823 506.146 187.646 506.214 188.59H503.265C503.146 187.959 502.862 187.433 502.413 187.013C501.97 186.587 501.376 186.374 500.632 186.374C500.001 186.374 499.447 186.544 498.97 186.885C498.492 187.22 498.12 187.703 497.853 188.334C497.592 188.965 497.461 189.72 497.461 190.601C497.461 191.493 497.592 192.26 497.853 192.902C498.115 193.539 498.481 194.03 498.953 194.377C499.43 194.718 499.99 194.888 500.632 194.888C501.086 194.888 501.492 194.803 501.85 194.632C502.214 194.456 502.518 194.203 502.762 193.874C503.007 193.544 503.174 193.144 503.265 192.672H506.214C506.14 193.598 505.867 194.419 505.396 195.135C504.924 195.845 504.282 196.402 503.47 196.806C502.657 197.203 501.703 197.402 500.606 197.402ZM515.486 197.146V186.561H512.691C511.98 186.561 511.435 186.726 511.054 187.056C510.674 187.385 510.486 187.794 510.492 188.283C510.486 188.771 510.665 189.175 511.029 189.493C511.392 189.811 511.912 189.97 512.588 189.97H516.458V192.22H512.588C511.543 192.22 510.64 192.056 509.878 191.726C509.117 191.396 508.532 190.931 508.122 190.328C507.713 189.726 507.509 189.021 507.509 188.215C507.509 187.374 507.716 186.644 508.131 186.024C508.551 185.399 509.148 184.916 509.921 184.575C510.699 184.229 511.622 184.056 512.691 184.056H518.375V197.146H515.486ZM507.032 197.146L510.688 190.431H513.73L510.066 197.146H507.032ZM531.536 184.056V194.845H533.539V201.357H530.522V197.146H520.482V184.056H523.456V194.615H528.587V184.056H531.536ZM540.723 197.402C539.41 197.402 538.277 197.129 537.322 196.584C536.373 196.033 535.643 195.254 535.132 194.249C534.62 193.237 534.365 192.047 534.365 190.678C534.365 189.331 534.62 188.149 535.132 187.132C535.649 186.11 536.37 185.314 537.296 184.746C538.223 184.172 539.311 183.885 540.561 183.885C541.367 183.885 542.129 184.016 542.845 184.277C543.566 184.533 544.203 184.931 544.754 185.47C545.311 186.01 545.748 186.698 546.066 187.533C546.385 188.362 546.544 189.351 546.544 190.499V191.445H535.814V189.365H543.586C543.581 188.774 543.453 188.249 543.203 187.789C542.953 187.323 542.603 186.956 542.154 186.689C541.711 186.422 541.194 186.289 540.603 186.289C539.973 186.289 539.419 186.442 538.941 186.749C538.464 187.05 538.092 187.448 537.825 187.942C537.564 188.431 537.43 188.968 537.424 189.553V191.368C537.424 192.129 537.564 192.783 537.842 193.328C538.12 193.868 538.51 194.283 539.01 194.573C539.51 194.857 540.095 194.999 540.765 194.999C541.214 194.999 541.62 194.936 541.984 194.811C542.348 194.681 542.663 194.49 542.93 194.24C543.197 193.99 543.399 193.681 543.535 193.311L546.416 193.635C546.234 194.396 545.887 195.061 545.376 195.629C544.87 196.192 544.223 196.629 543.433 196.942C542.643 197.249 541.74 197.402 540.723 197.402ZM548.154 197.146V184.056H553.651C555.202 184.056 556.426 184.365 557.324 184.985C558.228 185.604 558.679 186.468 558.679 187.575C558.679 188.308 558.424 188.908 557.912 189.374C557.407 189.834 556.716 190.144 555.841 190.303C556.529 190.36 557.131 190.533 557.648 190.823C558.171 191.112 558.58 191.493 558.875 191.965C559.171 192.436 559.318 192.979 559.318 193.593C559.318 194.314 559.128 194.942 558.747 195.476C558.372 196.004 557.824 196.416 557.103 196.712C556.387 197.002 555.517 197.146 554.495 197.146H548.154ZM551.043 194.718H554.495C555.063 194.718 555.509 194.584 555.833 194.317C556.157 194.044 556.318 193.675 556.318 193.209C556.318 192.669 556.157 192.246 555.833 191.939C555.509 191.627 555.063 191.47 554.495 191.47H551.043V194.718ZM551.043 189.476H553.711C554.131 189.476 554.492 189.416 554.793 189.297C555.094 189.172 555.324 188.999 555.483 188.777C555.642 188.55 555.722 188.28 555.722 187.968C555.722 187.519 555.537 187.166 555.168 186.911C554.804 186.655 554.299 186.527 553.651 186.527H551.043V189.476Z" fill="#638BE9"/>
<path opacity="0.2" d="M97.834 169.021L97.834 126.771" stroke="#638BE9" stroke-width="2" stroke-linecap="round"/>
<path opacity="0.3" d="M183.365 169.021L183.365 92.7651" stroke="#638BE9" stroke-width="2" stroke-linecap="round"/>
<path opacity="0.5" d="M268.895 169.021L268.895 70.0947" stroke="#638BE9" stroke-width="2" stroke-linecap="round"/>
<path opacity="0.6" d="M354.424 169.021L354.424 60.8203" stroke="#638BE9" stroke-width="2" stroke-linecap="round"/>
<path opacity="0.8" d="M439.955 169.021L439.955 50.5151" stroke="#638BE9" stroke-width="2" stroke-linecap="round"/>
<path d="M525.486 169.021V37.1191" stroke="#638BE9" stroke-width="2" stroke-linecap="round"/>
<path d="M561.553 17.5399C541.746 26.0821 490.388 44.5642 443.417 50.1555C384.703 57.1445 352.577 59.807 294.863 67.1289C259.487 71.6169 221.294 79.7757 179.557 95.0851C137.821 110.394 71.325 137.685 53.64 143.343C39.492 147.869 13.3182 154.104 1.99982 156.655" stroke="url(#paint1_linear_940_1222)" stroke-width="4" stroke-linecap="round"/>
<circle cx="15.9107" cy="152.506" r="7.21339" fill="#B7CBF8"/>
<rect x="494.387" width="60.9243" height="60.9243" rx="30.4622" fill="#638BE9"/>
<path d="M506.918 43.9619V17.7801H517.401C519.327 17.7801 520.934 18.0656 522.221 18.6366C523.508 19.2077 524.475 20.0003 525.123 21.0145C525.77 22.0202 526.094 23.1792 526.094 24.4917C526.094 25.5145 525.89 26.4136 525.481 27.1892C525.072 27.9562 524.509 28.5869 523.793 29.0812C523.086 29.567 522.276 29.9122 521.364 30.1167V30.3724C522.361 30.415 523.295 30.6963 524.164 31.2162C525.042 31.7361 525.753 32.4648 526.299 33.4023C526.844 34.3312 527.117 35.4392 527.117 36.7261C527.117 38.1153 526.772 39.3554 526.081 40.4463C525.4 41.5287 524.39 42.3852 523.052 43.0159C521.714 43.6466 520.064 43.9619 518.104 43.9619H506.918ZM512.454 39.4363H516.966C518.509 39.4363 519.634 39.1423 520.341 38.5542C521.049 37.9577 521.403 37.165 521.403 36.1764C521.403 35.452 521.228 34.8128 520.878 34.2588C520.529 33.7048 520.03 33.2702 519.383 32.9548C518.743 32.6395 517.981 32.4818 517.094 32.4818H512.454V39.4363ZM512.454 28.7361H516.557C517.316 28.7361 517.989 28.604 518.577 28.3398C519.174 28.067 519.643 27.6835 519.983 27.1892C520.333 26.6949 520.508 26.1025 520.508 25.4122C520.508 24.4662 520.171 23.7034 519.498 23.1238C518.833 22.5443 517.887 22.2545 516.66 22.2545H512.454V28.7361ZM540.956 17.7801V43.9619H535.421V23.0344H535.267L529.271 26.7929V21.8838L535.753 17.7801H540.956Z" fill="white"/>
<path d="M16.4277 170.052H561.554" stroke="url(#paint2_linear_940_1222)" stroke-width="2" stroke-linecap="round"/>
<defs>
<linearGradient id="paint0_linear_940_1222" x1="31.884" y1="156.601" x2="431.196" y2="123.138" gradientUnits="userSpaceOnUse">
<stop stop-color="#B7CBF8" stop-opacity="0"/>
<stop offset="1" stop-color="#638BE9"/>
</linearGradient>
<linearGradient id="paint1_linear_940_1222" x1="32.3991" y1="156.628" x2="561.553" y2="87.0976" gradientUnits="userSpaceOnUse">
<stop offset="0.264423" stop-color="#B7CBF8"/>
<stop offset="1" stop-color="#638BE9"/>
</linearGradient>
<linearGradient id="paint2_linear_940_1222" x1="16.4277" y1="170.552" x2="561.554" y2="170.552" gradientUnits="userSpaceOnUse">
<stop stop-color="#638BE9" stop-opacity="0.1"/>
<stop offset="1" stop-color="#638BE9"/>
</linearGradient>
</defs>
</svg>
