<svg width="50" height="50" viewBox="0 0 50 50" fill="none" xmlns="http://www.w3.org/2000/svg">
<rect width="50" height="50" rx="10" fill="white"/>
<path d="M14.8257 10.1015C14.2655 10.2198 13.5 10.5808 13.0021 10.9604C11.7822 11.8878 11.0603 13.5184 11.2594 14.925C11.4461 16.2756 12.6224 18.4912 14.7199 21.4351C15.3547 22.3251 15.473 22.4434 15.7468 22.4434C16.0331 22.4434 16.1203 22.3624 16.6742 21.5907C18.3733 19.2319 19.5745 17.1531 20.06 15.7216C20.2218 15.2486 20.2405 15.1117 20.2405 14.4146C20.2342 13.73 20.2156 13.5806 20.0662 13.1388C19.2882 10.9044 17.0725 9.61608 14.8257 10.1015ZM16.6057 12.7778C17.309 13.089 17.6762 13.6491 17.7074 14.4644C17.7322 14.9437 17.7198 15.0121 17.5393 15.3793C16.8298 16.8233 14.9315 16.9166 14.1224 15.5474C13.9668 15.2797 13.9544 15.1988 13.9544 14.6014C13.9544 13.9852 13.9668 13.9292 14.1473 13.6055C14.3714 13.2134 14.8195 12.84 15.2302 12.7031C15.5975 12.5786 16.2385 12.616 16.6057 12.7778Z" fill="#638BE9"/>
<path d="M18.8402 21.4285C18.6909 21.6276 18.4544 21.945 18.305 22.1442C18.1556 22.3371 18.0311 22.5114 18.0311 22.5301C18.0311 22.5488 18.9709 22.5674 20.1161 22.5674C22.0642 22.5674 22.2323 22.5737 22.587 22.6981C23.477 22.9969 24.0247 23.6379 24.199 24.5839C24.367 25.4926 23.9687 26.476 23.2218 26.9926C22.6181 27.4033 22.8422 27.3847 18.1867 27.422C13.4317 27.4656 13.6806 27.4407 12.6413 27.951C11.3654 28.5734 10.4007 29.8493 10.1019 31.2932C9.56667 33.901 11.1911 36.3967 13.7678 36.9071C14.2097 37.0005 15.2304 37.0067 23.2467 36.9942L32.2216 36.9756L31.6863 36.2474L31.1448 35.513H22.6368C15.0561 35.513 14.0976 35.5005 13.7927 35.4134C12.2803 34.9715 11.2533 33.3906 11.4961 31.872C11.689 30.6708 12.4794 29.7124 13.6558 29.2705C14.0105 29.1336 14.0728 29.1336 18.2801 29.1024L22.5434 29.0713L23.0414 28.897C23.8567 28.6045 24.3857 28.2311 24.9396 27.5465C25.4624 26.9054 25.811 25.9221 25.811 25.0881C25.811 23.3454 24.56 21.7272 22.8235 21.2169C22.5621 21.1422 22.0953 21.1111 20.7945 21.0924L19.1016 21.0613L18.8402 21.4285Z" fill="#638BE9"/>
<path d="M33.7452 21.1364C32.8926 21.2484 31.9216 21.6156 31.2432 22.0762C30.8138 22.3687 30.1354 23.0346 29.818 23.4765C29.0151 24.5968 28.5919 26.2088 28.791 27.3975C29.0213 28.7792 30.0669 30.9451 31.71 33.4595C32.5254 34.7167 33.8884 36.615 34.0751 36.7644C34.2494 36.9013 34.6664 36.92 34.878 36.8017C35.0274 36.7146 36.2286 35.0715 37.1061 33.7396C38.7679 31.219 39.7139 29.358 40.106 27.8581C40.243 27.3415 40.2554 27.1735 40.2305 26.5511C40.0811 23.2151 37.0688 20.7069 33.7452 21.1364ZM35.5315 24.6404C36.2721 25.0014 36.7451 25.6237 36.8945 26.4453C37.0937 27.5096 36.5273 28.5925 35.519 29.0655C35.1518 29.2398 35.0585 29.2585 34.4859 29.2585C33.8884 29.2585 33.8448 29.246 33.3905 29.0219C32.8241 28.7419 32.4133 28.3124 32.2079 27.7959C32.0523 27.3913 32.0274 26.7005 32.1519 26.1963C32.3262 25.4868 32.9424 24.8209 33.6643 24.5532C34.1685 24.3665 35.0585 24.4101 35.5315 24.6404Z" fill="#638BE9"/>
</svg>
