<svg width="44" height="44" viewBox="0 0 44 44" fill="none" xmlns="http://www.w3.org/2000/svg">
<path d="M0 21.9118V41.8232C0 42.9278 0.89543 43.8232 2 43.8232H16.0912H30.1825C31.287 43.8232 32.1825 42.9278 32.1825 41.8232V37.553V34.1875C32.1825 32.956 30.8054 32.2256 29.7859 32.9164C28.4654 33.8066 27.272 34.5793 27.1448 34.6282C26.9883 34.6869 26.8122 34.6869 26.6655 34.6282C26.1764 34.4424 26.1373 34.2859 25.971 31.1068L25.8342 28.6531C25.8148 28.3059 25.8864 27.9596 26.0417 27.6485L28.9936 21.7357L31.9713 15.7802C32.1102 15.5025 32.1825 15.1962 32.1825 14.8858V12.3255V11.2931C32.1825 10.1885 31.287 9.29311 30.1825 9.29311H27.8393H23.8471C23.6143 9.29311 23.3892 9.20984 23.2125 9.05834C23.0385 8.90921 22.9377 8.69199 22.9362 8.46284L22.9092 4.41193L22.8931 1.98699C22.8858 0.887638 21.9925 0.000293732 20.8931 0.000293732H11.4448H2C0.895432 0.000293732 0 0.895725 0 2.00029V21.9118ZM10.3786 12.0223C10.5602 12.2039 10.6623 12.4502 10.6623 12.7071V14.996C10.6623 17.5588 10.6525 17.686 10.4569 17.9403C10.3335 18.1007 10.1427 18.1946 9.94035 18.1946H7.45381C4.71488 18.1946 4.65619 18.1946 4.4312 17.9794C4.20622 17.774 4.20622 17.7642 4.20622 15.0155C4.20622 12.1396 4.216 12.0907 4.64641 11.856C4.77357 11.7777 5.75176 11.7484 7.4636 11.7386H9.69375C9.95062 11.7386 10.197 11.8406 10.3786 12.0223ZM27.5752 12.6679C28.0349 12.9026 28.123 13.4798 27.7611 13.8613C27.6302 14.0046 27.4451 14.0862 27.251 14.0862H20.454H13.6734C13.4736 14.0862 13.2815 14.0092 13.1371 13.871C12.7556 13.5091 12.8534 12.9026 13.3523 12.6385C13.4893 12.5603 15.6315 12.5309 20.4246 12.5211C26.2742 12.5211 27.3404 12.5407 27.5752 12.6679ZM22.8799 15.9546C23.4081 16.1404 23.5548 16.7665 23.1636 17.1871C23.0327 17.3304 22.8476 17.4121 22.6535 17.4121H18.1552C13.3719 17.4121 13.3621 17.4121 13.1371 17.1969C12.7458 16.835 12.8534 16.1991 13.3425 15.9839C13.7436 15.8176 22.3908 15.7883 22.8799 15.9546ZM10.4275 20.6695C10.579 20.8462 10.6623 21.0713 10.6623 21.3041V23.6236V25.9431C10.6623 26.1759 10.579 26.401 10.4275 26.5777C10.2783 26.7518 10.0613 26.8532 9.83203 26.8559L7.70814 26.881C4.96921 26.9103 4.68553 26.8908 4.40186 26.5875C4.216 26.3821 4.20622 26.2354 4.20622 23.6627C4.20622 22.1661 4.23557 20.8749 4.26491 20.7868C4.42142 20.3956 4.8127 20.3467 7.56141 20.376L9.83202 20.3929C10.0612 20.3946 10.2784 20.4955 10.4275 20.6695ZM26.3035 21.2368C26.4698 21.2955 26.6557 21.4227 26.7046 21.5205C26.8611 21.8237 26.8122 22.2933 26.6068 22.4987C26.4111 22.6943 26.284 22.6943 19.8866 22.6943H13.6734C13.4736 22.6943 13.2815 22.6172 13.1371 22.4791C12.7458 22.1172 12.8534 21.4814 13.3425 21.2662C13.7436 21.0999 25.8047 21.0705 26.3035 21.2368ZM23.1831 24.7485C23.3885 24.9539 23.4375 25.4235 23.2809 25.7267C23.0853 26.0886 22.7038 26.118 18.2041 26.118C13.7142 26.118 13.1958 26.0789 13.0099 25.7267C12.8534 25.4235 12.8926 24.9637 13.1078 24.7485C13.2936 24.5627 13.4306 24.5529 18.1454 24.5529C22.8603 24.5529 22.9973 24.5627 23.1831 24.7485ZM10.4275 29.2775C10.579 29.4543 10.6623 29.6794 10.6623 29.9122V32.2317V34.5512C10.6623 34.784 10.579 35.0091 10.4275 35.1858C10.2783 35.3599 10.0613 35.4612 9.83203 35.4638L7.62011 35.4891C6.20173 35.5086 4.93986 35.4891 4.8127 35.4597C4.69532 35.4304 4.50946 35.3228 4.40186 35.2152C4.216 35.0293 4.20622 34.8728 4.20622 32.2512C4.20622 29.5025 4.20622 29.4732 4.4312 29.2775C4.54859 29.1602 4.73444 29.0526 4.84204 29.0232C4.94965 28.9939 6.20173 28.9743 7.61032 28.9841L9.83202 29.0009C10.0612 29.0027 10.2784 29.1035 10.4275 29.2775ZM24.2298 30.0503C24.6406 30.4318 24.4841 31.0872 23.9265 31.3024C23.5451 31.4393 13.8316 31.4393 13.411 31.2926C12.8926 31.1068 12.736 30.4612 13.1078 30.0503C13.2389 29.9129 13.4207 29.8351 13.6107 29.8351H18.6541H23.6935C23.8933 29.8351 24.0854 29.9122 24.2298 30.0503ZM23.1538 33.3762C23.5646 33.7577 23.4179 34.4326 22.8799 34.6185C22.4495 34.7652 13.8414 34.7652 13.411 34.6185C12.8828 34.4326 12.736 33.8066 13.1273 33.3859C13.2582 33.2426 13.4433 33.161 13.6374 33.161H18.1357C22.919 33.161 22.9288 33.161 23.1538 33.3762Z" fill="#638BE9"/>
<path d="M5.77148 14.967V16.6299H7.43441H9.09733V14.967V13.304H7.43441H5.77148V14.967Z" fill="url(#paint0_linear_940_1377)"/>
<path d="M5.77148 23.6231V25.335H7.43441H9.09733V23.6231V21.9113H7.43441H5.77148V23.6231Z" fill="url(#paint1_linear_940_1377)"/>
<path d="M5.77148 32.2315V33.9434H7.43441H9.09733L9.07777 32.2511L9.04842 30.5686L7.41484 30.5393L5.77148 30.5197V32.2315Z" fill="url(#paint2_linear_940_1377)"/>
<path d="M24.4551 4.44082V7.72754H27.7418C29.5515 7.72754 31.009 7.68841 30.9894 7.64928C30.9796 7.61016 29.4928 6.12331 27.7125 4.36256L24.4551 1.14432V4.44082Z" fill="url(#paint3_linear_940_1377)"/>
<path d="M40.5753 2.31847C40.4971 2.41629 40.0471 3.22819 39.5776 4.12812L38.7266 5.7617L40.4873 6.65185C41.4655 7.13117 42.2774 7.53223 42.3067 7.53223C42.3361 7.53223 42.7274 6.77902 43.1969 5.85952C43.7447 4.74438 44.0186 4.09878 43.999 3.9227C43.9697 3.69772 43.7838 3.57055 42.5024 2.91517C41.7003 2.50433 40.9666 2.16196 40.8786 2.15218C40.7905 2.15218 40.6536 2.23043 40.5753 2.31847Z" fill="#638BE9"/>
<path d="M32.7002 17.8518L27.3887 28.4554L27.4865 30.2944C27.5452 31.3117 27.6039 32.2117 27.6137 32.3095C27.6332 32.4367 27.9952 32.241 29.2961 31.3704L30.9591 30.2553L36.2706 19.6908C39.1857 13.8804 41.5724 9.08724 41.5724 9.03833C41.5724 8.95029 38.2368 7.23846 38.0705 7.23846C38.0314 7.23846 35.6153 12.012 32.7002 17.8518Z" fill="#638BE9"/>
<defs>
<linearGradient id="paint0_linear_940_1377" x1="9.13693" y1="18.2144" x2="5.53567" y2="13.1994" gradientUnits="userSpaceOnUse">
<stop offset="0.694512" stop-color="#638BE9"/>
</linearGradient>
<linearGradient id="paint1_linear_940_1377" x1="9.13693" y1="26.9661" x2="5.39667" y2="21.9064" gradientUnits="userSpaceOnUse">
<stop offset="0.694512" stop-color="#638BE9"/>
</linearGradient>
<linearGradient id="paint2_linear_940_1377" x1="9.13693" y1="35.5745" x2="5.39667" y2="30.5148" gradientUnits="userSpaceOnUse">
<stop offset="0.694512" stop-color="#638BE9"/>
</linearGradient>
<linearGradient id="paint3_linear_940_1377" x1="31.0674" y1="10.8639" x2="23.9223" y2="0.987552" gradientUnits="userSpaceOnUse">
<stop offset="0.694512" stop-color="#638BE9"/>
</linearGradient>
</defs>
</svg>
