<svg width="44" height="44" viewBox="0 0 44 44" fill="none" xmlns="http://www.w3.org/2000/svg">
<path d="M12.2031 4.81348V9.61738L19.3703 9.64316C26.4945 9.66895 26.5461 9.66895 26.7867 9.84941C27.5602 10.4252 27.6289 11.3104 26.9414 11.9463L26.7094 12.1611L13.3547 12.1869L0 12.2041V27.5869C0 42.8408 0 42.9783 0.171875 43.3135C0.283594 43.5369 0.464063 43.7174 0.6875 43.8291C1.02266 44.001 1.16016 44.001 16.4742 44.001C31.0148 44.001 31.943 43.9924 32.2266 43.8463C32.3898 43.7689 32.6133 43.5713 32.7164 43.408L32.9141 43.1158V22.001V0.886131L32.7164 0.593945C32.2953 -0.0419922 33.0688 0.000976562 22.0688 0.000976562H12.2031V4.81348ZM26.7953 15.3838C27.2336 15.6502 27.4313 16.0369 27.3883 16.5525C27.3539 17.0768 27.1477 17.3861 26.675 17.6182C26.3313 17.79 26.1766 17.79 16.5344 17.79C10.1578 17.79 6.63438 17.7557 6.42812 17.7041C6.01562 17.5838 5.62031 17.1283 5.54297 16.6729C5.46563 16.2002 5.75781 15.5986 6.1875 15.3752C6.47109 15.2205 6.88359 15.2119 16.5 15.2119C26.3398 15.2119 26.5203 15.2119 26.7953 15.3838ZM19.8602 20.901C20.2125 21.0986 20.5391 21.6229 20.5391 22.001C20.5391 22.3791 20.2125 22.9033 19.8602 23.101L19.525 23.29H13.0797C8.73125 23.29 6.54844 23.2643 6.38516 23.1955C5.54297 22.8775 5.25938 21.8807 5.81797 21.2189C6.25625 20.7033 5.98984 20.7205 13.0539 20.7119H19.525L19.8602 20.901ZM25.3086 25.6963C25.7984 25.9369 26.0391 26.3838 26.0391 27.0541V27.5611L26.632 27.6041C27.5688 27.6729 28.0242 28.051 28.0758 28.8244C28.1445 29.6666 27.5945 30.165 26.6234 30.165H26.0391V30.6979C26.0391 31.6604 25.5578 32.2275 24.75 32.2275C23.9508 32.2275 23.4609 31.6432 23.4609 30.7064V30.165H22.868C22.4039 30.165 22.2234 30.1221 21.9914 29.9674C21.2094 29.4518 21.2266 28.4119 22.0172 27.8189C22.1719 27.7072 22.4383 27.6385 22.8508 27.6041L23.4609 27.5611V27.1057C23.4609 26.3666 23.7273 25.8854 24.2773 25.6447C24.6383 25.4814 24.8961 25.4986 25.3086 25.6963ZM16.9813 27.7502C17.1789 27.8361 17.4109 28.0252 17.5055 28.1541C17.7633 28.5322 21.2266 36.9197 21.2266 37.1689C21.2266 37.7361 20.7109 38.3549 20.1523 38.4666C19.5508 38.5783 18.8891 38.1314 18.6398 37.4354L18.5281 37.126H16.4914H14.4461L14.2313 37.5986C13.8789 38.3635 13.2172 38.6557 12.5125 38.3463C12.0312 38.1314 11.7734 37.7447 11.7734 37.2205C11.7734 36.7049 15.2109 28.3775 15.5805 28.008C15.9844 27.5955 16.457 27.5096 16.9813 27.7502Z" fill="#638BE9"/>
<path d="M16.044 33.276C15.8292 33.8088 15.6229 34.3158 15.5886 34.3932C15.537 34.5307 15.6143 34.5479 16.4479 34.5479C17.0151 34.5479 17.3589 34.5135 17.3589 34.4619C17.3589 34.3502 16.5854 32.4682 16.4995 32.3736C16.4737 32.3393 16.2675 32.7518 16.044 33.276Z" fill="#638BE9"/>
<path d="M4.8125 4.85645L0.0429688 9.62598H4.83828H9.625V4.85645C9.625 2.23535 9.61641 0.0869141 9.59922 0.0869141C9.59062 0.0869141 7.43359 2.23535 4.8125 4.85645Z" fill="#638BE9"/>
<path d="M39.4625 9.71191C39.3078 9.74629 39.0758 9.8666 38.9555 9.97832C38.5172 10.3994 38.5 10.4854 38.5 12.9346V15.2119H41.25H44.0086L43.9828 12.8572C43.957 10.6143 43.9484 10.4854 43.7766 10.2533C43.3812 9.72051 43.175 9.66895 41.3789 9.65176C40.4852 9.64316 39.6172 9.66895 39.4625 9.71191Z" fill="#638BE9"/>
<path d="M38.5 27.3289V36.8766L39.5312 38.9305C40.3992 40.6578 40.6141 41.0102 40.8375 41.1305C41.1641 41.3024 41.5852 41.2336 41.8258 40.9672C41.9289 40.8641 42.4531 39.8758 43.0031 38.7844L44 36.782V27.2859V17.7899H41.25H38.5V27.3289Z" fill="#638BE9"/>
</svg>
