<svg width="60" height="60" viewBox="0 0 60 60" fill="none" xmlns="http://www.w3.org/2000/svg">
<rect width="60" height="60" rx="10" fill="white"/>
<path d="M11.1641 11.1641L10.9375 11.3906V13.4688C10.9375 15.6641 10.9609 15.8516 11.3047 16.0078C11.5703 16.1328 48.4297 16.1328 48.6953 16.0078C49.0391 15.8516 49.0625 15.6641 49.0625 13.4688V11.3906L48.8359 11.1641L48.6094 10.9375H30H11.3906L11.1641 11.1641Z" fill="#638BE9"/>
<path d="M13.3359 17.3203C13.3047 17.3438 13.2812 22.1016 13.2812 27.8828C13.2812 37.9688 13.2891 38.4141 13.4297 38.7188C13.5078 38.8984 13.6953 39.125 13.8359 39.2266L14.1016 39.4141L19.6328 39.4375C22.6719 39.4453 25.1562 39.4766 25.1562 39.4922C25.1562 39.5156 24.2578 41.5469 23.1641 44.0156C22.0703 46.4766 21.1719 48.5391 21.1719 48.5859C21.1719 48.6406 21.2578 48.7656 21.3672 48.8672L21.5547 49.0625H23.3594C24.9688 49.0625 25.1719 49.0469 25.2969 48.9219C25.3672 48.8516 26.3594 46.6875 27.5 44.125L29.5703 39.4609H30H30.4297L32.5 44.1172C33.6328 46.6875 34.625 48.8438 34.7031 48.9219C34.8281 49.0469 35.0156 49.0625 36.6406 49.0625H38.4453L38.6328 48.8672C38.7422 48.7656 38.8281 48.6406 38.8281 48.5859C38.8281 48.5391 37.9297 46.4766 36.8359 44.0156C35.7422 41.5469 34.8438 39.5156 34.8438 39.4922C34.8438 39.4766 37.3359 39.4453 40.375 39.4375L45.9141 39.4141L46.1875 39.2031C46.7578 38.7656 46.7266 39.5234 46.7031 27.8125L46.6797 17.3047L30.0312 17.2812C20.875 17.2734 13.3594 17.2891 13.3359 17.3203ZM24.9844 21.2188C26.5703 21.5469 28.0391 22.5 29.0391 23.8594C29.2266 24.1094 29.3516 24.3438 29.3203 24.375C29.2891 24.4062 28.0781 25.1328 26.6406 25.9766C24.125 27.4688 24.0234 27.5156 23.8281 27.4141L23.6328 27.2969L23.6094 24.1953L23.5938 21.0938H23.9844C24.2031 21.0938 24.6562 21.1484 24.9844 21.2188ZM22.4219 24.3203C22.4219 27.4297 22.4219 27.4688 22.6016 27.8125C22.7031 28.0156 22.9141 28.2578 23.1094 28.3984C23.4062 28.6016 23.5156 28.6328 23.9766 28.6328H24.4922L27.1797 27.0469C28.6562 26.1797 29.8828 25.4844 29.9062 25.5C30.0234 25.625 30.25 26.7188 30.2891 27.3984C30.5 30.9766 27.9297 34.0156 24.3203 34.4531C21.3516 34.8125 18.375 32.9844 17.3047 30.1328C17.0703 29.5 16.875 28.4375 16.875 27.7734C16.875 26.6328 17.2656 25.2656 17.8672 24.2656C18.4141 23.3672 19.5938 22.2812 20.5469 21.7969C20.8984 21.6094 22.1406 21.1797 22.3281 21.1719C22.3984 21.1719 22.4219 21.8516 22.4219 24.3203ZM43.4531 21.8281C43.7812 22.0781 43.7812 22.6328 43.4453 22.8047C43.3438 22.8672 41.8047 22.8906 38.7578 22.8906H34.2266L34.0703 22.6875C33.8516 22.4141 33.8672 22.1484 34.1016 21.9141L34.2891 21.7188H38.8047C42.3828 21.7266 43.3516 21.7422 43.4531 21.8281ZM43.4453 25.4766C43.8047 25.6641 43.7734 26.2969 43.3906 26.4766C43.25 26.5391 41.9062 26.5625 38.7422 26.5625H34.2891L34.1016 26.3672C33.8672 26.1328 33.8516 25.8672 34.0703 25.5938L34.2266 25.3906H38.7578C41.8047 25.3906 43.3438 25.4141 43.4453 25.4766ZM43.4844 29.1641C43.7578 29.3984 43.7734 29.7812 43.5234 30.0234L43.3516 30.1953L38.9219 30.2188C35.8125 30.2344 34.4297 30.2109 34.2891 30.1484C33.8516 29.9688 33.8203 29.2812 34.2422 29.0781C34.3594 29.0234 35.9141 28.9922 38.8438 28.9922L43.2734 28.9844L43.4844 29.1641ZM43.3984 32.7031C43.4609 32.7344 43.5781 32.8594 43.6406 32.9844C43.7422 33.1797 43.7422 33.2578 43.6641 33.4453C43.6172 33.5781 43.5078 33.7109 43.4297 33.75C43.3438 33.7969 41.5156 33.8281 38.7578 33.8281H34.2266L34.0703 33.625C33.8516 33.3516 33.8672 33.0859 34.1016 32.8516L34.2891 32.6562H38.7812C41.25 32.6562 43.3281 32.6797 43.3984 32.7031Z" fill="#638BE9"/>
</svg>
