<svg width="42" height="37" viewBox="0 0 42 37" fill="none" xmlns="http://www.w3.org/2000/svg">
<path d="M15.2168 0.114845C14.5277 0.287109 14.0109 0.582422 13.4859 1.10742C12.682 1.90313 12.3867 2.72344 12.3867 4.14258V4.92188H6.68555C1.12383 4.92188 0.967969 4.93008 0.65625 5.08594C0.442969 5.19258 0.270703 5.36484 0.164062 5.57813C0.00820312 5.88984 0 6.0457 0 9.49102L0.00820312 13.084L3.37148 16.3816L6.73477 19.6875H7.10391H7.46484V18.9492C7.46484 18.0469 7.6125 17.6859 8.10469 17.407C8.42461 17.2266 8.48203 17.2266 11.148 17.2266C13.7156 17.2266 13.8879 17.2348 14.1914 17.3906C14.6836 17.6449 14.8477 18.0305 14.8477 18.9492V19.6875H21H27.1523V18.9492C27.1523 18.0469 27.3 17.6859 27.7922 17.407C28.1121 17.2266 28.1695 17.2266 30.8355 17.2266C33.4031 17.2266 33.5754 17.2348 33.8789 17.3906C34.3711 17.6449 34.5352 18.0305 34.5352 18.9492V19.6875H34.8961H35.2652L38.6285 16.3816L41.9918 13.084L42 9.49102C42 6.0457 41.9918 5.88984 41.8359 5.57813C41.7293 5.36484 41.557 5.19258 41.3438 5.08594C41.032 4.93008 40.8762 4.92188 35.3145 4.92188H29.6133V4.14258C29.6133 2.73164 29.318 1.91133 28.5059 1.09922C27.9727 0.566017 27.3902 0.237892 26.6766 0.0902348C26.0285 -0.0410156 15.7664 -0.0246086 15.2168 0.114845ZM26.4961 2.625C26.9883 2.8793 27.1523 3.26484 27.1523 4.18359V4.92188H21H14.8477V4.15899C14.8559 3.26484 14.9871 2.95312 15.4711 2.65781L15.791 2.46094H20.9836C26.0285 2.46094 26.1844 2.46914 26.4961 2.625Z" fill="#638BE9"/>
<path d="M0 26.2336C0 35.6016 0.00820313 35.9461 0.155859 36.2414C0.246094 36.4219 0.442969 36.6188 0.639844 36.7336L0.967969 36.9141H20.9918C40.909 36.9141 41.0238 36.9141 41.3438 36.75C41.557 36.6434 41.7293 36.4711 41.8359 36.2578C42 35.9379 42 35.823 41.9836 26.25L41.959 16.5539L39.252 19.2199C37.759 20.6801 36.4301 21.9352 36.2824 22.009C36.0938 22.1074 35.8066 22.1484 35.2734 22.1484H34.5352V22.9277C34.5352 23.9121 34.4203 24.4289 34.0676 25.118C33.3621 26.4715 31.7789 27.2672 30.2777 27.0047C29.4656 26.8652 28.8422 26.5453 28.2598 25.9629C27.4559 25.1672 27.1523 24.3387 27.1523 22.9277V22.1484H21H14.8477V22.9277C14.8477 23.8711 14.741 24.4207 14.4211 25.0523C13.7156 26.4469 12.116 27.2672 10.5902 27.0047C9.77813 26.8652 9.15469 26.5453 8.57227 25.9629C7.76836 25.1672 7.46484 24.3387 7.46484 22.9277V22.1484H6.72656C6.20156 22.1484 5.89805 22.1074 5.71758 22.0172C5.56992 21.9434 4.55273 20.9918 3.44531 19.9008C2.33789 18.818 1.11563 17.6121 0.713672 17.2266L0 16.5293V26.2336Z" fill="#638BE9"/>
<path d="M9.92578 21.6558C9.92578 23.9117 9.9668 24.0921 10.5656 24.4285C11.1727 24.7648 11.8617 24.5761 12.2062 23.9691C12.3785 23.6574 12.3867 23.5589 12.3867 21.664V19.6871H11.1562H9.92578V21.6558Z" fill="#638BE9"/>
<path d="M29.6133 21.6558C29.6133 23.9117 29.6543 24.0921 30.2531 24.4285C30.8602 24.7648 31.5492 24.5761 31.8937 23.9691C32.066 23.6574 32.0742 23.5589 32.0742 21.664V19.6871H30.8438H29.6133V21.6558Z" fill="#638BE9"/>
</svg>
