<svg width="44" height="44" viewBox="0 0 44 44" fill="none" xmlns="http://www.w3.org/2000/svg">
<path d="M26.0766 0.0914021C25.6464 0.237677 25.0527 0.624874 24.9322 0.839983C24.8892 0.926027 24.8548 1.11532 24.8548 1.27881C24.8548 1.53694 25.1646 1.8639 28.3396 5.04753L31.8243 8.53231L29.9916 10.365L28.1675 12.1892L27.0059 11.7934C26.0852 11.475 25.7152 11.389 25.242 11.389C24.3213 11.3718 23.9427 11.5783 22.8328 12.714C21.9551 13.6003 21.9121 13.6605 21.9637 13.9273C21.9981 14.0821 22.067 14.2628 22.1358 14.3231C22.196 14.3833 23.306 15.0286 24.6053 15.7428L26.9629 17.0507L28.2707 19.4083C28.9849 20.7075 29.6302 21.8175 29.6905 21.8777C29.7507 21.9465 29.9314 22.0154 30.0863 22.0498C30.353 22.1014 30.4132 22.0584 31.2995 21.1808C32.4353 20.0708 32.6418 19.6922 32.6246 18.7715C32.6246 18.2983 32.5385 17.9283 32.2201 17.0076L31.8243 15.846L33.6485 14.0219L35.4812 12.1892L38.966 15.6739C42.2873 18.9866 42.468 19.1587 42.7691 19.1587C43.1477 19.1587 43.4919 18.849 43.793 18.2381C43.9565 17.9025 43.9996 17.6874 43.9996 17.1367L43.9909 16.4483L41.8657 12.1978L39.7318 7.95581L40.8762 6.77701C42.6831 4.94428 43.4059 3.70524 43.793 1.82088C44.0082 0.762545 43.9996 0.55604 43.7328 0.280699C43.4575 0.0139618 43.251 0.00535774 42.184 0.220469C40.3427 0.59906 39.0004 1.39067 37.2365 3.12875L36.0577 4.28174L31.8157 2.15646C27.7545 0.12582 27.5394 0.0311718 27.0059 0.00535774C26.6703 -0.0118504 26.2917 0.0225677 26.0766 0.0914021Z" fill="#638BE9"/>
<path d="M17.7561 4.53988C16.9043 4.63453 15.0974 4.9787 14.3746 5.18521C13.8498 5.34009 13.8498 5.27125 14.3402 6.42424C14.8995 7.75792 15.6481 8.99695 16.3708 9.76274C17.042 10.4769 17.2571 10.5716 18.324 10.649C18.9436 10.7006 19.477 10.7953 19.9417 10.9501L20.6472 11.1825L21.3098 10.5371C22.1272 9.73693 22.7467 9.33252 23.6243 9.03137C24.5106 8.72161 25.8787 8.7044 26.7477 8.98835C27.0575 9.0916 27.3672 9.17764 27.4447 9.17764C27.5824 9.17764 28.1244 8.66138 28.1244 8.52371C28.1244 8.48069 27.3586 7.68048 26.4294 6.75121L24.7257 5.05614L24.1234 4.91847C22.3509 4.53127 19.4598 4.35919 17.7561 4.53988Z" fill="url(#paint0_linear_940_1321)"/>
<path d="M10.5284 6.75111C8.83333 7.63736 7.32757 8.73872 5.85622 10.1843L4.93555 11.0877L6.2262 11.4147C11.277 12.6881 14.0476 15.0027 14.0476 17.954C14.0476 18.8403 13.8841 19.4254 13.1183 21.1979C12.516 22.609 12.3783 23.1081 12.3783 23.9599C12.3783 25.044 12.5074 25.4915 13.1527 26.7563C13.8841 28.176 13.996 28.4772 14.0992 29.2946C14.2025 30.0518 14.0906 30.9639 13.7981 31.8243C13.256 33.4333 11.5265 35.7307 8.85054 38.4153C7.70616 39.551 7.55128 39.7403 7.65453 39.8608C7.93848 40.205 10.7779 41.9517 11.2426 42.0635C11.3028 42.0807 11.4663 41.814 11.6298 41.401C12.6279 39.0004 14.4176 36.3416 15.8287 35.1628C16.801 34.354 17.4463 34.1303 19.9158 33.7517C22.3078 33.3817 23.0822 33.1236 24.0545 32.4008C24.631 31.9706 25.1559 31.222 25.7237 30.0432C26.0765 29.2946 26.283 28.9848 26.696 28.5718C27.806 27.4619 29.3548 26.98 31.8243 26.98C33.7602 26.98 35.4725 27.1951 38.0022 27.763C38.6389 27.9093 39.1724 28.0126 39.1896 27.9953C39.2068 27.9781 39.2843 27.5823 39.3531 27.1091C39.5424 25.8615 39.6112 23.762 39.4908 22.5574C39.3789 21.3528 39.0605 19.5889 38.9659 19.5889C38.9315 19.5889 38.6475 19.7265 38.3464 19.8986C38.0538 20.0707 36.9697 20.6386 35.9544 21.1635L34.1044 22.1099L33.1149 23.0822C32.3663 23.8136 31.9877 24.1148 31.5747 24.3127C30.8606 24.6482 30.1378 24.7257 29.4322 24.545C28.9504 24.4245 28.873 24.4245 28.5374 24.545C23.5382 26.3777 20.4923 26.7563 18.4272 25.7926C17.0505 25.1473 16.1126 23.4436 16.2933 21.912C16.4654 20.4321 17.1452 19.1672 18.9951 16.9215C19.4081 16.4224 19.7867 15.9578 19.8469 15.8804C19.933 15.7599 19.9244 15.6825 19.7867 15.4501C19.5716 15.0888 19.3479 14.2369 19.3479 13.8067C19.3479 13.3851 19.193 13.3163 17.9884 13.2216C17.498 13.1786 16.8956 13.0839 16.6461 13.0151C15.0199 12.5419 13.2216 10.4166 11.9997 7.49969C11.776 6.97483 11.5695 6.48438 11.5351 6.40694C11.4835 6.27787 11.3544 6.32089 10.5284 6.75111Z" fill="#638BE9"/>
<path d="M2.87103 13.9449C2.4236 14.6418 1.59758 16.3455 1.25341 17.2662C-0.149109 21.0349 -0.381427 25.1822 0.590868 29.0542C1.37387 32.1862 2.92266 35.0772 5.13398 37.5381L5.59002 38.0457L7.02695 36.583C10.5203 33.0294 11.854 30.9213 11.5184 29.45C11.4668 29.2262 11.1485 28.4949 10.8043 27.8237C10.0815 26.4212 9.89221 25.7759 9.82337 24.4852C9.73733 22.9192 9.95244 21.9641 10.8129 20.0196C11.0538 19.4775 11.3205 18.7805 11.398 18.4708C11.5356 17.9545 11.5356 17.8771 11.4066 17.4296C11.028 16.139 9.0834 14.8913 6.19232 14.0739C5.38351 13.8502 3.58519 13.4802 3.28404 13.4802C3.22381 13.4802 3.03451 13.6867 2.87103 13.9449Z" fill="url(#paint1_linear_940_1321)"/>
<path d="M35.0953 16.1906L34.8027 16.4918L34.9146 16.9048C34.9834 17.1285 35.0953 17.6017 35.1727 17.9631L35.3104 18.617L36.188 18.1352C36.6699 17.8685 37.0915 17.6189 37.1259 17.5845C37.2034 17.5071 35.6288 15.8894 35.4825 15.8894C35.4309 15.8894 35.2588 16.0271 35.0953 16.1906Z" fill="url(#paint2_linear_940_1321)"/>
<path d="M21.1728 18.3495C19.4175 20.4748 18.9013 21.3525 18.8927 22.2473C18.8841 23.254 19.4175 23.6498 20.8717 23.7015C21.7924 23.7359 22.7819 23.6068 24.0381 23.2885C25.019 23.0389 26.9206 22.428 26.9206 22.3592C26.9206 22.3248 26.499 21.5504 25.9913 20.6297L25.062 18.9605L24.1241 18.4356C23.5993 18.143 22.9195 17.7644 22.6098 17.5924L22.0505 17.274L21.1728 18.3495Z" fill="url(#paint3_linear_940_1321)"/>
<path d="M30.9207 29.5786C29.7161 29.6733 29.0105 29.9056 28.5287 30.3874C28.3996 30.5165 28.1243 30.9897 27.9178 31.4286C26.7906 33.7948 25.2762 35.1112 22.8584 35.7996C22.454 35.92 21.3698 36.1265 20.4491 36.2728C19.5371 36.4191 18.5906 36.5912 18.3411 36.6686C17.5667 36.9009 16.7234 37.7442 15.6479 39.3618C14.71 40.7729 13.6345 42.9928 13.8324 43.1133C13.9959 43.2166 16.0781 43.6898 16.9816 43.8275C18.298 44.034 21.2494 44.034 22.6088 43.8189C24.9062 43.4661 26.6873 42.9068 28.6835 41.9001C32.4178 40.0243 35.5671 36.8751 37.4342 33.1494C37.9505 32.1169 38.5786 30.6111 38.5098 30.5509C38.4581 30.4907 36.6426 30.1035 35.6101 29.9228C33.7257 29.5958 32.1683 29.484 30.9207 29.5786Z" fill="#638BE9"/>
<defs>
<linearGradient id="paint0_linear_940_1321" x1="28.2929" y1="14.3814" x2="23.6072" y2="0.632712" gradientUnits="userSpaceOnUse">
<stop offset="0.694512" stop-color="#638BE9"/>
</linearGradient>
<linearGradient id="paint1_linear_940_1321" x1="11.7063" y1="49.7493" x2="-14.0395" y2="32.8654" gradientUnits="userSpaceOnUse">
<stop offset="0.694512" stop-color="#638BE9"/>
</linearGradient>
<linearGradient id="paint2_linear_940_1321" x1="37.1564" y1="19.9165" x2="34.085" y2="16.2692" gradientUnits="userSpaceOnUse">
<stop offset="0.694512" stop-color="#638BE9"/>
</linearGradient>
<linearGradient id="paint3_linear_940_1321" x1="27.0161" y1="26.7716" x2="20.6607" y2="15.7267" gradientUnits="userSpaceOnUse">
<stop offset="0.694512" stop-color="#638BE9"/>
</linearGradient>
</defs>
</svg>
