<svg width="50" height="51" viewBox="0 0 50 51" fill="none" xmlns="http://www.w3.org/2000/svg">
<rect width="50.0004" height="50.264" rx="10" fill="white"/>
<path d="M20.9894 34.9513C20.8721 34.833 20.7326 34.7392 20.5789 34.6751C20.4252 34.6111 20.2603 34.5781 20.0938 34.5781C19.9272 34.5781 19.7624 34.6111 19.6086 34.6751C19.4549 34.7392 19.3154 34.833 19.1981 34.9513L17.5709 36.5785L15.9436 34.9513C15.7207 34.7279 15.4221 34.5963 15.1069 34.5822C14.7916 34.5682 14.4825 34.6729 14.2407 34.8756L10.4563 38.0291C10.3286 38.135 10.223 38.265 10.1456 38.4118C10.0682 38.5586 10.0206 38.7192 10.0053 38.8844C9.99009 39.0496 10.0076 39.2162 10.0569 39.3746C10.1061 39.5331 10.1861 39.6802 10.2924 39.8077C10.3982 39.9354 10.5283 40.041 10.6751 40.1184C10.8218 40.1958 10.9824 40.2435 11.1476 40.2587C11.3129 40.2739 11.4795 40.2564 11.6379 40.2072C11.7964 40.1579 11.9435 40.0779 12.071 39.9717L14.9723 37.5498L16.6753 39.2653C16.7925 39.3835 16.932 39.4774 17.0858 39.5414C17.2395 39.6054 17.4044 39.6384 17.5709 39.6384C17.7374 39.6384 17.9023 39.6054 18.056 39.5414C18.2097 39.4774 18.3492 39.3835 18.4665 39.2653L20.0938 37.6254L21.0903 38.6346C21.3278 38.8721 21.65 39.0055 21.9859 39.0055C22.3219 39.0055 22.644 38.8721 22.8816 38.6346C23.1191 38.397 23.2525 38.0749 23.2525 37.739C23.2525 37.4031 23.1191 37.0809 22.8816 36.8434L20.9894 34.9513Z" fill="#638BE9"/>
<path d="M39.8604 14.2264C39.5897 13.3015 38.9638 12.5215 38.1196 12.0567L34.4488 10.0763C34.3025 9.99791 34.1316 9.97907 33.9717 10.0237C33.8118 10.0684 33.6754 10.1731 33.591 10.316L23.4994 28.556C23.4377 28.7099 23.4377 28.8816 23.4994 29.0354C23.5483 29.1955 23.6567 29.3309 23.8022 29.4138L26.9306 31.1419C27.0241 31.1907 27.1278 31.2166 27.2333 31.2176C27.347 31.2193 27.459 31.1896 27.557 31.1317C27.6549 31.0739 27.735 30.9901 27.7883 30.8897L36.9338 14.2768C37.1746 14.4256 37.3504 14.6599 37.4258 14.9328C37.468 15.0724 37.4819 15.2191 37.4667 15.3642C37.4516 15.5094 37.4076 15.65 37.3375 15.7779L32.7458 24.1159C32.6654 24.2608 32.6143 24.4201 32.5955 24.5848C32.5768 24.7495 32.5906 24.9163 32.6363 25.0756C32.682 25.2349 32.7586 25.3836 32.8618 25.5133C32.965 25.643 33.0928 25.7511 33.2378 25.8314C33.3827 25.9118 33.5421 25.9629 33.7067 25.9817C33.8714 26.0005 34.0382 25.9866 34.1975 25.9409C34.3568 25.8952 34.5056 25.8186 34.6353 25.7154C34.765 25.6122 34.8731 25.4844 34.9533 25.3394L39.545 17.0015C40.0117 16.1541 40.125 15.1568 39.8604 14.2264Z" fill="#638BE9"/>
<path d="M26.3888 32.1133L23.2604 30.3978C23.1622 30.3425 23.0514 30.3135 22.9387 30.3135C22.826 30.3135 22.7153 30.3425 22.6171 30.3978C22.5237 30.456 22.4475 30.5382 22.3965 30.6358C22.3455 30.7334 22.3215 30.8428 22.3269 30.9528L22.4531 34.4217C22.4532 34.5317 22.4839 34.6396 22.5419 34.7331C22.5998 34.8267 22.6826 34.9023 22.7811 34.9515C22.8754 35.0045 22.9819 35.0324 23.0901 35.0324C23.1984 35.0324 23.3048 35.0045 23.3992 34.9515L26.4014 33.1981C26.4971 33.1445 26.576 33.0655 26.6295 32.9697C26.6829 32.874 26.7088 32.7653 26.7041 32.6557C26.7011 32.5461 26.6706 32.4391 26.6155 32.3443C26.5604 32.2496 26.4825 32.1701 26.3888 32.1133Z" fill="#638BE9"/>
</svg>
