<svg width="60" height="60" viewBox="0 0 60 60" fill="none" xmlns="http://www.w3.org/2000/svg">
<rect width="60" height="60" rx="10" fill="white"/>
<path d="M44.25 12L15.75 12C14.7554 12 13.8016 12.3951 13.0983 13.0983C12.3951 13.8016 12 14.7554 12 15.75V44.25C12 44.7425 12.097 45.2301 12.2855 45.6851C12.4739 46.14 12.7501 46.5534 13.0983 46.9016C13.4466 47.2499 13.86 47.5261 14.3149 47.7145C14.7699 47.903 15.2575 48 15.75 48H44.25C44.7425 48 45.2301 47.903 45.6851 47.7145C46.14 47.5261 46.5534 47.2499 46.9016 46.9016C47.2499 46.5534 47.5261 46.14 47.7145 45.6851C47.903 45.2301 48 44.7425 48 44.25V15.75C48 15.2575 47.903 14.7699 47.7145 14.3149C47.5261 13.86 47.2499 13.4466 46.9016 13.0983C46.5534 12.7501 46.14 12.4739 45.6851 12.2855C45.2301 12.097 44.7425 12 44.25 12ZM39.75 26.25H33C32.6022 26.25 32.2206 26.092 31.9393 25.8107C31.658 25.5294 31.5 25.1478 31.5 24.75C31.5 24.3522 31.658 23.9706 31.9393 23.6893C32.2206 23.408 32.6022 23.25 33 23.25H39.75C40.1478 23.25 40.5294 23.408 40.8107 23.6893C41.092 23.9706 41.25 24.3522 41.25 24.75C41.25 25.1478 41.092 25.5294 40.8107 25.8107C40.5294 26.092 40.1478 26.25 39.75 26.25ZM41.25 38.25C41.25 38.6478 41.092 39.0294 40.8107 39.3107C40.5294 39.592 40.1478 39.75 39.75 39.75H33C32.6022 39.75 32.2206 39.592 31.9393 39.3107C31.658 39.0294 31.5 38.6478 31.5 38.25C31.5 37.8522 31.658 37.4706 31.9393 37.1893C32.2206 36.908 32.6022 36.75 33 36.75H39.75C40.1478 36.75 40.5294 36.908 40.8107 37.1893C41.092 37.4706 41.25 37.8522 41.25 38.25ZM28.95 20.4L24.45 26.4C24.3213 26.5728 24.1569 26.7158 23.9679 26.8193C23.7789 26.9229 23.5699 26.9845 23.355 27C23.1402 27.0157 22.9245 26.985 22.7226 26.91C22.5207 26.8349 22.3374 26.7173 22.185 26.565L19.935 24.315C19.7951 24.1751 19.6842 24.0091 19.6085 23.8264C19.5328 23.6436 19.4939 23.4478 19.4939 23.25C19.4939 23.0522 19.5328 22.8564 19.6085 22.6736C19.6842 22.4909 19.7951 22.3249 19.935 22.185C20.0749 22.0451 20.2409 21.9342 20.4236 21.8585C20.6064 21.7828 20.8022 21.7439 21 21.7439C21.1978 21.7439 21.3936 21.7828 21.5764 21.8585C21.7591 21.9342 21.9251 22.0451 22.065 22.185L23.085 23.22L26.55 18.6C26.7887 18.2817 27.144 18.0713 27.5379 18.0151C27.9317 17.9588 28.3317 18.0613 28.65 18.3C28.9683 18.5387 29.1787 18.894 29.2349 19.2879C29.2912 19.6817 29.1887 20.0817 28.95 20.4ZM28.95 35.4L24.45 41.4C24.3214 41.5729 24.1571 41.7161 23.9682 41.8198C23.7792 41.9236 23.5702 41.9853 23.3553 42.001C23.1403 42.0167 22.9245 41.9858 22.7226 41.9106C22.5207 41.8353 22.3373 41.7175 22.185 41.565L19.935 39.315C19.6525 39.0325 19.4939 38.6495 19.4939 38.25C19.4939 37.8505 19.6525 37.4675 19.935 37.185C20.2175 36.9025 20.6005 36.7439 21 36.7439C21.3995 36.7439 21.7825 36.9025 22.065 37.185L23.085 38.22L26.55 33.6C26.7887 33.2817 27.144 33.0713 27.5379 33.0151C27.9317 32.9588 28.3317 33.0613 28.65 33.3C28.9683 33.5387 29.1787 33.894 29.2349 34.2879C29.2912 34.6817 29.1887 35.0817 28.95 35.4Z" fill="#638BE9"/>
</svg>
