<svg width="102" height="34" viewBox="0 0 102 34" fill="none" xmlns="http://www.w3.org/2000/svg">
<g clip-path="url(#clip0_940_1397)">
<path d="M98.8228 20.7793L101.652 22.6956C100.734 24.0698 98.5374 26.4274 94.7398 26.4274C90.0239 26.4274 86.5117 22.7208 86.5117 18.0057C86.5117 12.988 90.0611 9.58398 94.3427 9.58398C98.649 9.58398 100.759 13.0636 101.441 14.9421L101.814 15.9003L90.7188 20.565C91.5627 22.2544 92.8782 23.1117 94.7398 23.1117C96.6013 23.1117 97.892 22.1787 98.8228 20.7793ZM90.1231 17.7409L97.5321 14.6143C97.1226 13.5679 95.9064 12.8241 94.4543 12.8241C92.6052 12.8241 90.0363 14.4882 90.1231 17.7409Z" fill="#938CA2"/>
<path d="M81.1641 0.998047H84.7382V25.658H81.1641V0.998047Z" fill="#938CA2"/>
<path d="M75.5289 10.2395H78.979V25.217C78.979 31.4324 75.3676 33.9917 71.0984 33.9917C67.0775 33.9917 64.6575 31.2433 63.7515 29.0118L66.9161 27.6754C67.487 29.0496 68.8646 30.676 71.0984 30.676C73.8411 30.676 75.5289 28.9488 75.5289 25.7213V24.511H75.4048C74.5857 25.5196 73.022 26.4273 71.0364 26.4273C66.8913 26.4273 63.0938 22.7586 63.0938 18.0308C63.0938 13.2778 66.8913 9.57129 71.0364 9.57129C73.0096 9.57129 74.5857 10.4664 75.4048 11.4498H75.5289V10.2395ZM75.7771 18.0308C75.7771 15.0555 73.8287 12.887 71.3466 12.887C68.8397 12.887 66.73 15.0555 66.73 18.0308C66.73 20.9683 68.8397 23.099 71.3466 23.099C73.8287 23.1116 75.7771 20.9683 75.7771 18.0308Z" fill="#938CA2"/>
<path d="M43.4728 17.9675C43.4728 22.8213 39.7497 26.3892 35.1827 26.3892C30.6157 26.3892 26.8926 22.8087 26.8926 17.9675C26.8926 13.0885 30.6157 9.5332 35.1827 9.5332C39.7497 9.5332 43.4728 13.0885 43.4728 17.9675ZM39.849 17.9675C39.849 14.9418 37.6896 12.8615 35.1827 12.8615C32.6758 12.8615 30.5164 14.9418 30.5164 17.9675C30.5164 20.9681 32.6758 23.0735 35.1827 23.0735C37.6896 23.0735 39.849 20.9681 39.849 17.9675Z" fill="#938CA2"/>
<path d="M61.5802 18.0057C61.5802 22.8595 57.8571 26.4274 53.2901 26.4274C48.7231 26.4274 45 22.8595 45 18.0057C45 13.1266 48.7231 9.58398 53.2901 9.58398C57.8571 9.58398 61.5802 13.114 61.5802 18.0057ZM57.944 18.0057C57.944 14.9799 55.7846 12.8997 53.2777 12.8997C50.7708 12.8997 48.6114 14.9799 48.6114 18.0057C48.6114 21.0062 50.7708 23.1117 53.2777 23.1117C55.797 23.1117 57.944 20.9936 57.944 18.0057Z" fill="#938CA2"/>
<path d="M13.2662 22.7333C8.06624 22.7333 3.99565 18.4721 3.99565 13.1896C3.99565 7.90711 8.06624 3.64583 13.2662 3.64583C16.0709 3.64583 18.1186 4.76788 19.6327 6.20512L22.1272 3.67104C20.0174 1.61604 17.2003 0.0527344 13.2662 0.0527344C6.14264 0.0527344 0.148438 5.95297 0.148438 13.1896C0.148438 20.4262 6.14264 26.3264 13.2662 26.3264C17.1134 26.3264 20.0174 25.0405 22.2885 22.6451C24.6217 20.2749 25.3415 16.9466 25.3415 14.2486C25.3415 13.4039 25.2422 12.534 25.1305 11.891H13.2662V15.3959H21.7176C21.4694 17.5895 20.7869 19.0898 19.7816 20.111C18.5654 21.3591 16.6418 22.7333 13.2662 22.7333Z" fill="#938CA2"/>
</g>
<defs>
<clipPath id="clip0_940_1397">
<rect width="102" height="34" fill="white"/>
</clipPath>
</defs>
</svg>
