<svg width="416" height="243" viewBox="0 0 416 243" fill="none" xmlns="http://www.w3.org/2000/svg">
<path d="M331.314 123.051C332.982 122.963 334.592 122.412 335.966 121.46C337.339 120.508 338.422 119.193 339.094 117.66C339.666 115.711 337.606 115.023 336.918 117.202C336.343 118.394 335.474 119.42 334.393 120.183C333.313 120.946 332.056 121.42 330.742 121.561C330.285 121.675 329.37 123.089 331.314 123.051Z" fill="white"/>
<path d="M334.744 106.54C334.07 104.013 330.623 106.311 332.684 108.718C333.256 109.406 335.444 109.173 334.744 106.54Z" fill="white"/>
<path d="M329.826 95.8766C328.223 96.3289 328.225 98.1697 330.282 98.1697C332.582 97.9997 334.891 98.3561 337.033 99.212C337.181 99.2616 337.341 99.2593 337.487 99.2052C337.633 99.1512 337.756 99.0487 337.836 98.9148C337.916 98.7809 337.948 98.6237 337.926 98.4692C337.905 98.3147 337.831 98.1722 337.718 98.0654C336.638 97.1518 335.373 96.4831 334.011 96.1053C332.649 95.7275 331.221 95.6494 329.826 95.8766Z" fill="white"/>
<path d="M323.648 101.601C322.119 100.735 320.318 100.489 318.614 100.913C317.574 101.257 317.699 102.404 318.728 102.518C320.073 102.565 321.394 102.877 322.618 103.435C323.989 104.017 324.326 102.191 323.648 101.601Z" fill="white"/>
<path d="M325.475 109.522C325.151 112.071 325.112 114.648 325.361 117.206C325.821 120.187 332.568 118.008 331.541 116.403C330.969 115.486 328.681 117.445 327.191 116.747C326.794 114.36 326.642 111.939 326.736 109.522C326.736 109.354 326.669 109.194 326.551 109.075C326.433 108.957 326.273 108.89 326.106 108.89C325.938 108.89 325.778 108.957 325.66 109.075C325.542 109.194 325.475 109.354 325.475 109.522Z" fill="white"/>
<path d="M323.188 110.323C324.9 109.281 323.304 105.737 321.817 106.884C320.671 107.572 321.122 111.576 323.188 110.323Z" fill="white"/>
<path d="M311.633 119.612C313.235 124.886 317.125 131.766 321.586 134.976C323.645 136.467 324.675 134.976 322.626 133.027C318.228 129.313 314.909 124.48 313.017 119.037C312.94 118.853 312.795 118.707 312.611 118.631C312.428 118.555 312.221 118.555 312.038 118.632C311.854 118.708 311.709 118.854 311.633 119.038C311.557 119.222 311.557 119.429 311.633 119.612Z" fill="white"/>
<path d="M348.816 125.116C349.376 124.642 348.931 123.74 348.244 124.073C341.838 126.825 337.376 136.8 340.465 143.91C340.923 144.828 342.181 144.484 341.952 143.45C340.236 134.632 342.497 130.456 348.816 125.116Z" fill="white"/>
<path d="M310.605 127.294C311.503 130.16 312.969 132.816 314.915 135.101C316.861 137.386 319.247 139.254 321.931 140.594C323.418 141.282 324.905 140.135 322.617 138.645C317.909 135.941 314.182 131.805 311.978 126.835C311.406 125.918 310.351 126.268 310.605 127.294Z" fill="white"/>
<path d="M315.523 119.383C318.097 124.717 322.417 129.006 327.764 131.536C335.2 134.861 336.689 129.701 343.096 125.459C343.782 125.001 343.437 124.083 342.636 124.313C336.916 125.688 336.344 133.256 328.336 129.357C323.664 126.756 319.728 123.008 316.896 118.465C316.763 118.313 316.579 118.214 316.379 118.187C316.179 118.161 315.976 118.208 315.808 118.32C315.64 118.432 315.518 118.602 315.466 118.798C315.414 118.993 315.434 119.201 315.523 119.383Z" fill="white"/>
<path d="M325.476 149.547C326.05 150.462 327.537 149.662 327.078 148.745C324.904 142.895 316.21 141.634 313.121 136.475C312.549 135.557 311.519 136.475 311.873 137.392C315.066 143.46 321.597 143.339 325.476 149.547Z" fill="white"/>
<path d="M314.724 101.495C315.144 107.116 316.258 112.662 318.041 118.007C318.27 118.81 319.757 118.466 319.529 117.549C317.116 109.801 316.147 101.675 316.669 93.5757C317.478 93.8707 318.34 93.9937 319.2 93.9369C320.059 93.8801 320.897 93.6448 321.661 93.2458C322.425 92.8469 323.098 92.293 323.637 91.6195C324.175 90.946 324.569 90.1675 324.791 89.3335C327.882 93.9197 337.034 93.4611 339.894 89.3335C339.093 95.6395 346.415 106.761 347.902 104.697C348.588 103.655 349.275 102.519 350.533 102.175C355.224 100.684 356.024 109.627 353.164 110.888C351.916 111.462 349.389 109.846 350.876 113.87C352.852 119.122 354.532 124.481 355.91 129.921C356.139 130.953 357.397 130.494 357.397 129.462C356.39 123.902 354.858 118.45 352.821 113.179C353.885 113.043 354.872 112.55 355.62 111.779C356.368 111.009 356.833 110.007 356.94 108.937C358.278 108.45 359.473 107.635 360.416 106.566C361.359 105.497 362.02 104.208 362.339 102.817C362.658 101.427 362.624 99.9779 362.24 98.6036C361.857 97.2294 361.137 95.9731 360.145 94.9495C366.322 88.7582 365.178 78.5519 355.681 78.6665C356.27 76.7888 356.279 74.7763 355.705 72.8937C355.132 71.0111 354.003 69.3463 352.469 68.1183C350.934 66.8903 349.064 66.1565 347.105 66.0132C345.146 65.87 343.19 66.3241 341.493 67.3158C338.061 58.0288 323.99 60.7805 323.647 69.0356C314.724 61.6977 303.167 73.1631 310.031 81.9915C302.254 82.1166 301.568 100.693 314.724 101.495Z" fill="white"/>
<path d="M330.398 155.959C331.083 156.727 331.986 157.268 332.986 157.508C333.986 157.748 335.035 157.676 335.993 157.302C336.951 156.928 337.772 156.269 338.347 155.415C338.921 154.56 339.221 153.55 339.207 152.519C341.1 151.778 342.935 150.896 344.698 149.882C344.442 148.324 343.857 146.839 342.982 145.525C341.201 145.987 339.475 146.641 337.834 147.475C337.172 146.653 336.267 146.064 335.25 145.793C334.232 145.521 333.155 145.581 332.173 145.965C331.192 146.348 330.358 147.034 329.791 147.924C329.225 148.813 328.956 149.861 329.023 150.914C327.879 151.602 326.621 152.405 326.163 152.749C326.106 154.333 326.543 155.895 327.411 157.22C328.337 156.876 329.472 156.426 330.398 155.959ZM331.425 150.914C331.787 146.901 337.041 147.36 336.576 152.405C336.232 156.532 330.993 155.732 331.425 150.914Z" fill="white"/>
<path d="M305.345 194.715C305.002 188.982 304.773 175.451 306.261 170.406C306.489 169.489 307.633 169.259 307.509 171.209C307.124 179.003 307.2 186.814 307.737 194.6C316.376 194.321 325.023 194.743 333.594 195.861C329.931 186.23 324.783 156.303 324.211 152.405C323.639 148.507 315.86 145.868 311.731 141.855C302.121 145.295 288.735 156.074 278.324 170.75C282.154 179.116 285.291 187.783 287.705 196.664C293.544 195.686 299.434 195.036 305.345 194.715Z" fill="white"/>
<path d="M359.227 131.994C354.536 136.924 350.532 139.332 343.439 139.447C344.927 149.661 353.852 164.558 361.631 175.452C362.847 172.86 363.73 170.124 364.26 167.31C364.491 165.704 365.508 166.278 365.508 167.195C365.321 170.813 364.549 174.376 363.22 177.745C372.603 190.586 384.852 202.969 389.428 218.564C394.576 212.029 414.713 176.246 400.756 152.519C392.521 138.185 374.558 130.848 359.227 131.994Z" fill="white"/>
<path d="M376.045 235.642C384.169 235.756 387.943 235.756 394.807 235.756C398.355 226.928 402.016 209.615 403.274 195.281C395.951 219.023 384.854 230.259 376.045 235.642Z" fill="white"/>
<path d="M344.813 228.54C331.899 229.765 319.114 232.105 306.602 235.534C314.038 235.419 340.809 235.19 350.19 235.419C347.761 233.706 345.891 231.313 344.813 228.54Z" fill="white"/>
<path d="M342.992 225.673C344.367 225.465 344.136 223.38 342.763 223.609C309.668 228.264 304.171 232.238 290.021 233.47C288.076 233.584 286.485 235.648 289.105 235.648C297.573 235.648 311.53 231.291 320.682 229.571C328.682 227.966 334.986 226.914 342.992 225.673Z" fill="white"/>
<path d="M291.84 198.155C286.802 199.164 288.064 200.792 289.895 200.333C302.938 197.581 320.556 198.155 333.6 200.333C334.858 200.562 335.43 198.613 334.172 198.384C321.242 196.205 304.756 195.572 291.84 198.155Z" fill="white"/>
<path d="M372.385 195.173C372.953 195.638 374.101 194.944 373.633 194.131C362.823 181.239 353.211 167.384 344.917 152.739C344.459 151.936 343.086 152.739 343.429 153.541C347.787 162.263 364.891 189.051 372.385 195.173Z" fill="white"/>
<path d="M386.57 219.481C387.028 218.335 385.53 217.417 384.968 218.439C381.536 224.516 377.418 230.592 370.783 233.573C364.033 236.669 356.595 235.752 351.676 229.904C341.037 217.292 333.257 177.163 330.395 158.929C330.167 157.783 328.565 158.241 328.794 159.388C331.196 176.815 338.986 217.866 350.303 231.28C358.97 241.632 377.262 239.072 386.57 219.481Z" fill="white"/>
<path d="M215.99 173.729C216.79 173.274 216.218 172.353 215.303 172.478C211.185 173.28 208.439 174.427 207.179 178.557C205.907 182.318 205.593 186.338 206.263 190.251C206.492 191.294 207.979 191.054 208.094 190.022C208.208 185.551 207.522 184.633 209.009 179.703C210.267 175.107 212.335 175.813 215.99 173.729Z" fill="white"/>
<path d="M217.476 156.188C217.351 158.675 217.427 161.167 217.705 163.641C217.82 164.558 219.421 164.444 219.536 163.641C219.587 161.152 219.473 158.662 219.192 156.188C219.076 155.384 217.495 155.384 217.476 156.188Z" fill="white"/>
<path d="M226.171 155.272C229.227 153.604 234.075 150.342 236.124 146.327C236.696 145.18 236.584 144.836 235.781 143.804C234.77 142.658 233.575 141.69 232.245 140.938C230.874 140.25 230.758 140.709 229.73 141.397C222.978 146.097 212.674 145.18 205.588 141.511C205.016 141.167 203.414 142.084 204.901 142.887C213.712 147.361 223.205 148.163 231.33 142.428C232.639 143.261 233.832 144.263 234.878 145.409C232.169 149.269 228.501 152.352 224.237 154.355C222.635 152.405 221.034 150.571 219.432 148.622C217.017 145.935 216.027 150.771 212.108 154.699C208.143 152.735 204.354 150.434 200.783 147.819C201.927 146.671 202.956 145.526 204.1 144.378C204.787 143.804 203.872 142.658 203.06 143.127C201.854 144.002 200.743 145.002 199.743 146.108C199.333 146.581 199.127 147.198 199.17 147.823C199.213 148.448 199.501 149.031 199.972 149.443C201.802 151.163 211.068 157.125 212.558 156.437C215.074 155.186 216.447 151.851 218.163 149.787C219.765 151.392 221.938 154.603 223.197 155.864C223.998 156.762 225.362 155.714 226.171 155.272Z" fill="white"/>
<path d="M238.299 109.177C238.714 107.413 238.867 105.597 238.755 103.788C238.526 101.839 236.698 101.724 236.81 103.903C237.039 106.769 236.011 110.094 236.354 110.782C237.155 112.733 240.015 109.531 241.386 111.587C243.331 114.797 239.098 120.874 236.467 119.269C235.782 118.81 235.219 119.154 234.751 120.644C234.051 122.652 233.131 124.575 232.005 126.377C225.828 135.435 213.358 137.728 206.494 129.921C204.074 126.78 202.498 123.069 201.918 119.144C201.9 118.885 201.815 118.636 201.672 118.421C201.528 118.205 201.332 118.031 201.101 117.916C200.87 117.8 200.612 117.746 200.354 117.761C200.097 117.775 199.847 117.856 199.63 117.997C197.228 119.831 195.054 117.08 194.825 113.64C194.482 108.937 197.342 108.593 199.401 110.198C199.529 110.303 199.687 110.364 199.851 110.373C200.016 110.383 200.18 110.34 200.319 110.251C200.458 110.163 200.566 110.032 200.627 109.879C200.688 109.725 200.699 109.556 200.66 109.396C200.545 108.354 199.973 102.517 199.973 101.255C199.859 100.109 198.486 100.567 198.486 101.599C198.6 103.663 198.715 105.842 198.944 107.791C198.313 107.484 197.616 107.336 196.915 107.36C196.214 107.384 195.53 107.579 194.921 107.928C194.312 108.277 193.798 108.77 193.422 109.364C193.047 109.957 192.821 110.634 192.766 111.335C191.851 117.528 196.198 122.343 200.202 120.05C201.346 125.095 203.291 130.255 207.526 133.35C207.295 135.414 207.182 137.478 206.954 139.542C206.839 141.376 208.098 141.605 208.555 140.688C208.864 138.599 209.055 136.493 209.127 134.382C211.931 135.846 215.074 136.533 218.232 136.372C221.39 136.211 224.447 135.207 227.088 133.465C227.202 135.529 227.088 137.707 227.317 139.771C227.319 139.901 227.349 140.03 227.404 140.148C227.459 140.266 227.538 140.372 227.636 140.457C227.735 140.543 227.85 140.607 227.974 140.645C228.099 140.683 228.23 140.694 228.359 140.678C228.489 140.662 228.613 140.618 228.724 140.551C228.836 140.483 228.932 140.393 229.006 140.286C229.08 140.179 229.131 140.057 229.156 139.929C229.18 139.8 229.177 139.669 229.147 139.542C228.804 136.102 229.033 133.923 228.918 132.204C232.382 129.451 234.903 125.683 236.128 121.426C236.821 121.591 237.542 121.595 238.236 121.436C238.931 121.277 239.579 120.96 240.132 120.509C245.506 116.861 245.047 107.113 238.299 109.177Z" fill="white"/>
<path d="M209.811 99.0865C208.654 99.0641 207.505 99.2874 206.44 99.7419C205.375 100.196 204.418 100.872 203.632 101.724C202.945 102.411 203.403 103.902 204.776 103.214C206.254 102.15 207.997 101.516 209.811 101.38C211.871 101.15 211.536 99.2095 209.811 99.0865Z" fill="white"/>
<path d="M237.61 170.979C237.29 168.192 236.243 165.539 234.577 163.285C232.91 161.032 230.682 159.257 228.115 158.138C226.867 157.679 226.742 158.94 227.658 159.389C233.492 162.484 235.78 168.446 236.011 174.754C236.238 179.914 233.835 187.94 239.898 190.806C240.938 191.265 241.731 189.555 240.699 189.086C235.551 186.689 238.821 178.784 237.61 170.979Z" fill="white"/>
<path d="M211.298 160.087C211.857 159.389 211.184 158.482 210.383 159.045C205.938 162.859 202.681 167.873 201.002 173.491C200.201 176.474 200.43 179.57 199.744 182.436C198.943 185.761 196.083 187.022 193.452 188.857C192.536 189.43 193.337 191.035 194.367 190.577C196.932 189.526 199.123 187.729 200.659 185.417C203.061 181.29 200.659 176.13 205.578 167.529C207.296 164.909 209.208 162.421 211.298 160.087Z" fill="white"/>
<path d="M204.433 184.969C204.826 181.426 204.547 177.744 206.492 174.534C207.368 173.208 208.514 172.083 209.856 171.233C211.197 170.383 212.702 169.828 214.273 169.604C215.646 169.374 215.521 167.999 214.273 167.999C212.459 168.059 210.685 168.547 209.095 169.423C207.505 170.3 206.143 171.54 205.121 173.043C203.148 176.644 202.385 180.786 202.948 184.855C202.946 185.657 204.331 185.887 204.433 184.969Z" fill="white"/>
<path d="M218.4 183.944C217.984 186.931 218.629 231.298 218.743 233.705C218.743 234.967 220.802 234.852 220.802 233.591C220.802 220.875 220.23 197.931 220.002 184.058C219.879 183.364 218.518 183.02 218.4 183.944Z" fill="white"/>
<path d="M230.634 205.033C229.322 204.538 228.153 203.724 227.235 202.663C226.316 201.602 225.675 200.328 225.371 198.956C224.113 192.88 230.405 187.032 227.202 180.726C226.641 179.547 225.712 178.583 224.556 177.981C223.399 177.379 222.078 177.172 220.793 177.391C220.626 177.391 220.466 177.458 220.348 177.576C220.23 177.694 220.164 177.854 220.164 178.022C220.164 178.189 220.23 178.349 220.348 178.468C220.466 178.586 220.626 178.652 220.793 178.652C221.535 178.68 222.264 178.859 222.936 179.178C223.607 179.496 224.207 179.948 224.699 180.505C225.191 181.063 225.565 181.715 225.799 182.421C226.032 183.128 226.12 183.875 226.058 184.616C226.058 187.941 224.227 191.037 223.541 194.247C222.843 196.772 223.113 199.466 224.299 201.801C225.485 204.135 227.5 205.94 229.947 206.859C231.206 207.441 231.888 205.508 230.634 205.033Z" fill="white"/>
<path d="M192.536 191.619C192.415 190.702 192.536 187.606 190.934 188.075C189.53 188.336 188.152 188.719 186.816 189.222C184.985 190.025 184.07 192.088 186.587 191.4C187.731 191.056 188.989 190.712 190.123 190.358C190.706 197.788 193.676 204.829 198.589 210.425C191.887 216.163 184.642 221.232 176.957 225.559C174.783 226.82 175.355 228.769 177.185 227.737C185.5 223.388 193.228 217.994 200.182 211.686C200.525 211.342 200.983 210.883 200.525 210.195C196.425 203.773 193.516 199.078 192.536 191.619Z" fill="white"/>
<path d="M289.896 217.188C288.629 205.15 280.058 181.644 275.253 171.208C267.929 155.5 256.375 149.768 240.13 146.211C239.917 146.165 239.695 146.206 239.512 146.324C239.33 146.443 239.201 146.629 239.156 146.842C239.11 147.055 239.15 147.278 239.268 147.461C239.386 147.644 239.572 147.773 239.785 147.819C253.858 152.749 264.268 154.583 271.935 169.144C277.426 179.58 289.553 211.57 287.837 223.838C286.464 233.355 281.43 232.896 274.795 233.355C262.896 234.157 242.532 218.22 234.065 210.424C239.785 206.409 243.448 197.237 244.477 190.816C253.585 193.321 262.378 196.86 270.685 201.364C271.831 201.937 272.746 200.447 271.602 199.874C266.312 196.899 260.804 194.331 255.127 192.192C254.633 189.456 253.452 186.891 251.695 184.739C250.78 183.937 250.322 184.969 250.665 185.542C251.782 187.358 252.63 189.328 253.182 191.389C250.472 190.349 247.678 189.544 244.831 188.981C242.657 188.637 242.657 188.981 242.314 190.816C238.537 209.048 229.957 208.587 232.359 211.226C240.827 220.743 261.19 235.074 274.462 235.304C286.922 235.641 291.261 230.146 289.896 217.188Z" fill="white"/>
<path d="M231.777 180.727C231.634 179.051 231.008 177.453 229.973 176.129C228.939 174.805 227.542 173.812 225.953 173.272C223.994 172.892 221.998 172.738 220.004 172.814C219.086 172.814 219.086 173.96 219.889 174.192C223.207 175.109 225.953 173.845 228.355 177.287C230.986 180.956 229.499 184.51 229.957 186.689C230.019 186.86 230.13 187.01 230.275 187.12C230.421 187.229 230.596 187.294 230.777 187.306C230.959 187.318 231.14 187.277 231.299 187.188C231.458 187.099 231.588 186.965 231.673 186.803C232.058 184.799 232.094 182.743 231.777 180.727Z" fill="white"/>
<path d="M217.018 176.714C215.7 177.134 214.486 177.832 213.459 178.761C212.433 179.691 211.617 180.83 211.067 182.103C206.263 192.192 219.421 199.645 200.428 206.641C200.195 206.71 199.998 206.868 199.878 207.079C199.757 207.291 199.723 207.541 199.782 207.777C199.841 208.014 199.989 208.218 200.194 208.348C200.4 208.478 200.648 208.524 200.886 208.475C203.915 207.76 206.735 206.346 209.123 204.346C219.764 195.403 204.547 186.804 217.59 177.975C218.277 177.402 217.936 176.497 217.018 176.714Z" fill="white"/>
<path d="M207.064 109.291C208.537 110.571 210.392 106.539 208.439 105.508C206.721 104.59 206.024 108.386 207.064 109.291Z" fill="white"/>
<path d="M230.174 172.584C233.122 175.369 232.92 179.464 233.034 183.249C233.034 184.167 234.407 184.052 234.636 183.249C235.208 179.122 234.75 174.19 231.547 171.094C228.115 167.884 222.853 167.425 218.506 168.113C218.407 168.117 218.31 168.143 218.221 168.188C218.133 168.232 218.054 168.295 217.992 168.373C217.93 168.45 217.884 168.54 217.859 168.636C217.834 168.732 217.829 168.832 217.845 168.93C217.862 169.028 217.899 169.122 217.954 169.204C218.009 169.287 218.081 169.357 218.165 169.41C218.249 169.463 218.343 169.497 218.441 169.511C218.539 169.524 218.639 169.517 218.734 169.489C222.624 169.489 227.054 169.637 230.174 172.584Z" fill="white"/>
<path d="M191.048 106.425C192.076 107.344 193.222 105.737 192.307 104.82C185.671 98.1699 185.671 88.0782 190.247 80.2818C203.403 57.5782 242.532 62.1664 250.655 85.5559C252.063 89.295 252.21 93.3935 251.074 97.2245C249.937 101.055 247.58 104.408 244.363 106.769C243.676 107.342 244.248 108.603 245.164 108.145C254.316 103.559 255.917 91.52 252.142 82.9209C240.931 57.351 197.34 55.9751 186.701 82.9209C183.498 90.832 184.517 100.588 191.048 106.425Z" fill="white"/>
<path d="M194.594 99.545C201.564 100.325 210.155 95.4174 213.587 89.4554C213.691 89.2877 213.728 89.0865 213.69 88.8925C213.652 88.6985 213.543 88.526 213.383 88.4098C213.224 88.2935 213.026 88.2421 212.831 88.266C212.635 88.2898 212.455 88.387 212.328 88.5382C207.18 94.8441 202.488 96.9079 194.594 97.8252C194.391 97.8586 194.206 97.9634 194.072 98.1209C193.939 98.2784 193.865 98.4784 193.865 98.6851C193.865 98.8917 193.939 99.0917 194.072 99.2492C194.206 99.4067 194.391 99.5115 194.594 99.545Z" fill="white"/>
<path d="M216.56 117.205C217.363 116.634 217.361 115.829 216.56 115.485C215.988 115.256 212.9 116.058 212.671 115.485C212.213 114.339 213.929 109.406 214.272 106.999C214.501 105.279 213.7 105.279 212.9 106.655C212.099 108.03 209.572 115.026 210.724 117.09C211.87 118.81 215.421 118.012 216.56 117.205Z" fill="white"/>
<path d="M170.225 165.247C177.193 155.493 184.871 151.488 196.311 147.934C197.455 147.59 197.111 145.755 195.967 146.099C182.811 149.998 176.06 153.667 168.052 164.788C166.908 166.164 169.079 166.85 170.225 165.247Z" fill="white"/>
<path d="M241.28 100.578C241.447 100.528 241.591 100.422 241.69 100.278C241.788 100.134 241.835 99.9604 241.821 99.7863C241.808 99.6123 241.736 99.448 241.616 99.3209C241.497 99.1937 241.338 99.1113 241.165 99.0872C234.071 98.9726 225.491 97.9407 220.114 92.7812C215.08 87.9658 212.563 79.5939 212.21 72.8294C212.095 71.6828 210.379 71.5786 210.494 72.7147C210.608 79.8232 213.822 89.1123 218.959 94.0424C224.097 98.9726 234.283 101.653 241.28 100.578Z" fill="white"/>
<path d="M213.472 123.739C217.181 125.713 221.824 124.542 223.082 120.988C223.311 120.185 222.396 119.497 221.824 120.185C218.496 124.083 215.646 122.478 213.92 122.593C213.015 122.478 212.794 123.379 213.472 123.739Z" fill="white"/>
<path d="M228.23 104.361C227.365 101.86 222.51 99.0871 220.222 99.8897C219.307 100.234 218.964 102.068 220.222 102.297C222.765 102.629 225.153 103.706 227.086 105.393C227.658 105.852 228.551 105.287 228.23 104.361Z" fill="white"/>
<path d="M220.909 110.094C223.087 109.66 222.968 105.623 221.252 106.081C219.649 106.425 219.081 110.459 220.909 110.094Z" fill="white"/>
<path d="M284.061 37.6277C285.207 37.29 286.349 36.9398 287.493 36.5854C286.806 39.4517 286.005 42.3181 285.319 45.1844C284.175 49.312 285.777 49.656 286.692 48.1655C289.552 43.6939 292.526 39.1078 295.615 34.7509C299.85 28.6743 300.877 29.2475 293.098 29.4769C294.471 26.8377 295.844 24.2007 297.102 21.5553C298.361 18.9099 289.895 21.8993 289.094 22.5872C288.934 22.6901 288.817 22.8489 288.766 23.0331C288.715 23.2173 288.734 23.4138 288.82 23.5847C288.905 23.7556 289.05 23.8888 289.228 23.9587C289.405 24.0285 289.602 24.0301 289.781 23.963C290.696 23.7337 292.641 22.8165 294.814 22.3579L291.039 29.9271C290.81 30.5004 291.039 31.1883 291.725 31.1883C293.213 31.1883 294.814 31.0737 296.301 31.0737C293.441 35.2012 290.581 39.4434 287.721 43.571L290.124 35.3159C290.184 35.151 290.199 34.9725 290.165 34.8C290.132 34.6276 290.051 34.4676 289.933 34.3376C289.816 34.2075 289.664 34.1124 289.496 34.0625C289.328 34.0127 289.149 34.0099 288.98 34.0547C287.836 34.3986 286.577 34.8573 285.444 35.2012C286.13 31.8763 287.045 28.5513 287.846 25.1096C288.075 24.1923 286.702 23.963 286.359 24.7656C285.028 28.5085 283.957 32.3395 283.156 36.231C282.802 36.9398 283.262 37.8612 284.061 37.6277Z" fill="white"/>
<path d="M145.855 124.323C146.429 124.782 147.345 124.323 147.001 123.635C146.199 121.342 145.512 119.049 147.23 116.641C147.933 115.697 148.88 114.963 149.969 114.518C151.057 114.073 152.246 113.934 153.408 114.117C153.596 114.116 153.778 114.054 153.928 113.94C154.077 113.827 154.186 113.667 154.238 113.486C154.289 113.305 154.281 113.113 154.214 112.937C154.147 112.761 154.024 112.612 153.865 112.512C150.662 111.021 144.368 113.773 144.368 119.852C144.279 120.66 144.365 121.479 144.622 122.251C144.879 123.023 145.3 123.73 145.855 124.323Z" fill="white"/>
<path d="M141.509 137.842C141.521 138.092 141.628 138.329 141.809 138.502C141.99 138.675 142.231 138.772 142.482 138.772C142.732 138.772 142.973 138.675 143.154 138.502C143.335 138.329 143.442 138.092 143.454 137.842C143.701 135.73 143.546 133.59 142.996 131.536C141.852 127.523 138.077 126.032 138.192 122.019C138.306 119.612 138.764 117.204 138.878 114.911C138.876 114.723 138.803 114.544 138.675 114.407C138.547 114.27 138.373 114.187 138.187 114.172C138 114.158 137.815 114.214 137.668 114.329C137.521 114.445 137.422 114.611 137.391 114.796C136.933 117.089 136.476 119.382 136.247 121.675C135.789 126.72 139.221 128.096 140.594 131.306C141.518 133.352 141.835 135.62 141.509 137.842Z" fill="white"/>
<path d="M142.767 95.0743L144.483 111.928C144.597 112.616 145.855 112.616 145.97 111.814C146.542 107.572 145.055 99.2018 144.139 94.7199C144.025 94.0424 142.652 94.2717 142.767 95.0743Z" fill="white"/>
<path d="M154.324 126.032C154.769 126.956 155.925 126.261 155.696 125.459C155.353 123.51 154.552 121.217 158.328 121.217C161.416 121.217 161.864 123.968 161.76 126.491C161.531 131.191 157.527 135.204 157.527 139.447C157.531 139.686 157.622 139.916 157.782 140.094C157.942 140.272 158.162 140.385 158.399 140.413C158.637 140.441 158.876 140.382 159.073 140.246C159.271 140.111 159.412 139.908 159.472 139.676C160.616 134.975 161.073 135.434 162.675 131.535C164.058 128.631 164.264 125.302 163.247 122.248C160.959 117.089 150.684 118.509 154.324 126.032Z" fill="white"/>
<path d="M149.175 120.071C148.955 121.77 149.275 123.495 150.091 125.001C150.184 125.136 150.321 125.234 150.479 125.278C150.637 125.322 150.806 125.308 150.955 125.24C151.104 125.171 151.224 125.052 151.295 124.904C151.365 124.755 151.38 124.586 151.339 124.427C150.881 122.02 150.423 119.153 152.711 117.892C153.718 117.275 154.864 116.92 156.043 116.86C157.222 116.8 158.397 117.036 159.461 117.548C160.262 118.007 160.948 116.746 160.376 116.172C158.442 113.765 149.862 114.682 149.175 120.071Z" fill="white"/>
<path d="M97.4629 100.807C96.7765 100.922 96.0901 101.036 95.5181 101.151C94.4885 97.9405 91.3997 94.6155 87.6245 95.9914C83.6205 97.4819 83.504 101.839 83.7349 103.788C80.4069 104.132 76.9832 104.59 73.6656 104.934C73.4776 104.979 73.3115 105.089 73.1971 105.245C73.0826 105.401 73.0274 105.593 73.0411 105.786C73.0549 105.979 73.1368 106.161 73.2722 106.299C73.4076 106.437 73.5876 106.522 73.78 106.54C77.212 106.31 80.644 106.081 84.0781 105.966C86.0915 116.283 97.7208 113.483 96.0901 103.215C96.6621 103.1 97.2341 103.1 97.6917 102.985C98.9625 111.907 109.313 112.183 108.331 101.609C109.246 101.609 111.191 101.151 110.276 99.775C109.818 99.087 108.788 99.5457 108.102 99.6603C106.272 92.0931 97.8061 93.0104 97.4629 100.807ZM85.5653 104.705C85.2221 102.068 85.7941 99.3163 87.5101 98.2845C90.3701 96.45 93.2301 99.3164 94.1453 102.985C96.0381 111.764 86.676 113.623 85.5653 104.705ZM104.212 107.686C100.011 109.145 97.1883 99.579 100.895 96.794C105.818 92.9312 109.042 106 104.208 107.686H104.212Z" fill="white"/>
<path d="M97.6928 113.765C95.0616 113.994 95.2904 115.14 97.0064 115.37C98.1504 115.484 99.9808 115.255 100.542 114.223C101.458 112.618 100.199 109.979 98.5976 108.488C97.4536 107.342 96.8816 108.374 97.3496 108.947C98.3854 110.552 100.896 113.191 97.6928 113.765Z" fill="white"/>
<path d="M106.043 110.667C105.935 109.52 104.795 109.52 104.795 110.667C105.024 118.466 104.223 130.963 93.1267 131.88C88.7774 132.224 84.087 130.16 80.3118 127.982C79.6254 127.523 78.7102 128.67 79.511 129.243C83.291 131.97 87.7867 133.525 92.4403 133.715C92.6691 135.549 93.1267 137.498 93.3555 139.333C93.9275 142.887 95.3003 141.167 95.0715 140.021C94.8306 137.872 94.5254 135.73 94.1563 133.6C104.899 131.88 106.89 119.608 106.043 110.667Z" fill="white"/>
<path d="M90.3686 124.084C91.0018 124.387 91.6916 124.552 92.3931 124.57C93.0945 124.588 93.7918 124.457 94.4394 124.187C95.0871 123.916 95.6706 123.512 96.1519 123.001C96.6332 122.489 97.0015 121.881 97.2327 121.217C98.0335 119.497 97.5758 119.153 96.0886 119.153C94.6423 119.262 93.1903 119.04 91.8422 118.504C90.4942 117.968 89.2855 117.131 88.3074 116.058C86.4229 114.482 85.9611 122.401 90.3686 124.084ZM95.8599 120.873C94.0295 124.417 88.5362 122.708 88.4239 118.58C90.5938 120.122 93.2002 120.926 95.8599 120.873Z" fill="white"/>
<path d="M90.0281 104.361C89.7889 105.047 90.1404 106.883 91.2865 106.654C92.2017 106.539 92.2017 105.278 91.8585 104.476C91.4009 103.329 90.4669 103.094 90.0281 104.361Z" fill="white"/>
<path d="M102.726 102.298C102.48 103.096 102.84 105.164 103.974 104.705C104.546 104.476 104.774 103.903 104.66 102.871C104.442 101.601 103.154 100.913 102.726 102.298Z" fill="white"/>
<path d="M82.8166 97.5968C84.5503 95.5955 86.949 94.292 89.5683 93.9278C89.8399 93.8725 90.0826 93.7214 90.2526 93.502C90.4225 93.2826 90.5083 93.0094 90.4945 92.732C90.4806 92.4546 90.3681 92.1914 90.1771 91.9901C89.9862 91.7888 89.7296 91.6627 89.4539 91.6348C88.1302 91.646 86.8239 91.9378 85.6208 92.4911C84.4177 93.0444 83.3451 93.8467 82.4734 94.8451C79.9566 97.5968 82.1115 98.3806 82.8166 97.5968Z" fill="white"/>
<path d="M52.3836 96.1058C52.1958 99.664 53.0212 103.202 54.7635 106.308C56.5058 109.414 59.0933 111.96 62.2241 113.648C62.7961 116.973 64.9697 120.873 69.0881 120.873C70.3183 127.001 71.121 133.207 71.4905 139.447C71.4825 139.557 71.4974 139.668 71.534 139.772C71.5707 139.877 71.6284 139.972 71.7035 140.053C71.7786 140.134 71.8696 140.199 71.9707 140.243C72.0719 140.287 72.181 140.31 72.2913 140.31C72.4016 140.31 72.5107 140.287 72.6118 140.243C72.713 140.199 72.8039 140.134 72.8791 140.053C72.9542 139.972 73.0119 139.877 73.0486 139.772C73.0852 139.668 73.1 139.557 73.0921 139.447C72.9737 133.477 72.3229 127.53 71.1473 121.676C70.9185 120.644 70.9185 118.578 69.7745 118.693C67.4865 118.922 65.1985 116.973 64.5121 113.304C63.7113 109.406 65.8849 106.195 68.9737 107.675C69.4313 107.905 69.7745 107.561 70.0033 107.332C74.4649 102.975 80.0705 94.9489 80.0705 86.1184C86.0193 88.7575 100.321 89.7894 106.842 87.6089C106.385 78.8952 98.0334 65.4807 79.4985 67.3152C58.7921 69.3894 52.5874 85.2116 52.3836 96.1058Z" fill="white"/>
<path d="M99.98 92.5513C101.434 92.1072 102.987 92.1072 104.442 92.5513C105.586 92.8952 105.471 91.7487 104.556 90.9461C103.771 90.5305 102.912 90.2759 102.028 90.1972C101.144 90.1184 100.253 90.2171 99.408 90.4875C97.692 91.2901 98.2806 93.2788 99.98 92.5513Z" fill="white"/>
<path d="M56.2748 76.8421C57.5657 73.9954 59.8425 71.7143 62.6833 70.4215C60.2809 52.5334 35.3396 50.4696 27.6644 68.2472C19.9892 86.0249 35.4457 94.5134 38.6489 101.04C41.7377 107.576 43.5681 117.667 41.5089 121.678C39.4497 125.576 41.9665 125.806 44.8265 120.427C47.1145 116.07 51.2329 103.333 47.9153 92.7936C44.3772 81.8869 53.186 76.0395 56.2748 76.8421Z" fill="white"/>
<path d="M174.23 167.998C159.701 167.777 135.675 167.196 122.519 168.342C112.221 169.26 109.705 172.47 107.302 181.415C103.87 194.486 98.3789 216.387 96.5485 228.884C82.7242 228.679 68.8988 229.215 55.1316 230.489C49.9836 231.177 49.6404 234.96 51.242 236.566C52.0428 237.368 53.0724 236.222 52.49 235.419C52.3766 235.216 52.3045 234.992 52.2777 234.761C52.2508 234.53 52.2699 234.296 52.3336 234.072C52.3974 233.848 52.5047 233.64 52.6493 233.457C52.794 233.275 52.9731 233.124 53.1764 233.011C56.0364 231.062 90.7037 230.718 95.6229 230.718C97.4533 230.718 98.0253 230.489 98.4829 228.54C101.915 212.374 106.387 193.798 110.495 178.549C111.743 173.616 115.529 170.979 121.594 170.521C136.923 169.26 158.547 169.947 174.792 170.177C180.514 170.291 183.944 172.585 183.488 179.007C182.916 187.606 175.364 213.979 172.618 223.724C171.748 227.547 170.403 231.244 168.614 234.731C167.928 235.878 169.644 237.141 170.33 235.982C172.386 231.675 174.033 227.183 175.249 222.567C178.91 209.726 184.06 191.15 185.662 179.799C186.369 172.011 182.012 168.117 174.23 167.998Z" fill="white"/>
<path d="M142.997 195.517C142.533 196.201 143.341 197.237 144.141 196.664C144.945 196.007 145.946 195.639 146.983 195.618C148.02 195.597 149.034 195.925 149.863 196.549C151.351 197.925 151.694 200.791 148.948 205.721C145.514 212.029 140.824 212.946 138.756 210.424C136.239 207.328 138.642 201.02 141.044 198.498C141.616 197.81 140.587 196.778 140.004 197.351C134.971 201.938 134.055 208.704 136.915 211.8C141.491 216.845 148.129 212.717 150.643 207.328C152.131 204.116 154.419 199.759 152.359 196.434C151.934 195.597 151.305 194.882 150.531 194.353C149.756 193.824 148.862 193.498 147.929 193.407C146.996 193.316 146.056 193.461 145.194 193.83C144.332 194.198 143.577 194.779 142.997 195.517Z" fill="white"/>
<path d="M156.725 54.5989C159.369 52.8978 155.924 48.4055 153.189 51.1572C150.891 53.3377 154.562 55.9893 156.725 54.5989Z" fill="white"/>
<path d="M128.809 56.5464C131.792 57.67 134.071 54.368 132.241 52.6482C129.724 50.2404 125.387 55.2581 128.809 56.5464Z" fill="white"/>
<path d="M141.509 55.86C145.516 57.1107 147.001 51.9617 143.111 51.0445C140.594 50.4712 138.194 54.8218 141.509 55.86Z" fill="white"/>
<path d="M293.442 76.2687C292.883 75.1159 291.5 75.4662 291.612 76.498C292.072 80.0419 299.162 80.6256 301.224 76.7274C304.882 69.6188 293.32 67.555 291.843 72.1412C291.271 73.861 292.756 73.7463 293.559 72.4851C294.586 70.7653 301.336 71.4428 299.508 75.5808C298.707 77.6446 294.38 78.2074 293.442 76.2687Z" fill="white"/>
<path d="M273.879 52.3065C273.765 58.6125 280.4 60.9055 285.434 61.9374C303.854 65.721 312.206 55.8608 309.918 48.9795C309.905 48.8869 309.873 48.798 309.824 48.7189C309.774 48.6397 309.708 48.5721 309.631 48.5205C309.553 48.469 309.465 48.4347 309.373 48.42C309.281 48.4053 309.187 48.4105 309.097 48.4352C309.007 48.46 308.924 48.5038 308.852 48.5636C308.78 48.6234 308.722 48.6979 308.682 48.782C308.641 48.8661 308.619 48.958 308.617 49.0514C308.615 49.1447 308.633 49.2375 308.67 49.3234C309.356 57.6952 299.63 60.7888 292.88 60.9055C287.618 61.0202 273.089 58.2685 276.178 50.2406C276.75 48.8648 275.72 48.0622 274.93 48.8648C270.239 53.797 263.145 52.4211 259.713 46.457C256.052 40.0364 257.997 30.9787 266.005 32.0106C266.248 32.0247 266.488 31.9488 266.679 31.7973C266.87 31.6459 266.999 31.4294 267.041 31.189C267.083 30.9486 267.036 30.701 266.908 30.4932C266.78 30.2853 266.581 30.1317 266.348 30.0615C259.598 27.3098 258.444 16.7596 266.577 11.8294C274.358 7.12862 280.879 9.76566 286.141 15.957C287.056 17.1035 288.2 16.8742 288.315 14.5811C288.887 8.61912 296.437 5.1795 301.816 6.55535C303.243 7.01896 304.563 7.76257 305.701 8.74286C306.838 9.72314 307.769 10.9205 308.44 12.2651C309.111 13.6097 309.508 15.0747 309.608 16.5747C309.708 18.0746 309.509 19.5796 309.023 21.0018C308.68 22.0441 309.71 22.3797 310.51 22.1504C317.603 20.3138 325.154 28.1124 325.84 34.877C326.984 45.8838 317.146 46.2277 311.197 44.9665C310.053 44.7372 310.282 46.0089 311.197 46.3424C319.777 49.2087 328.7 45.1959 327.67 34.877C326.984 27.3098 319.09 19.0526 311.082 20.3138C311.639 17.8062 311.472 15.1915 310.601 12.7754C309.73 10.3593 308.191 8.24162 306.163 6.67C298.839 1.28126 287.971 5.98208 286.484 13.4346C284.17 10.5568 280.925 8.58052 277.31 7.8477C273.696 7.11487 269.939 7.67166 266.691 9.4217C258.912 13.4346 255.251 23.8702 262.575 29.8322C257.196 31.0934 254.793 36.4821 255.48 41.9855C257.175 51.8479 267.128 57.0073 273.879 52.3065Z" fill="white"/>
<path d="M132.814 165.599C138.534 165.599 149.748 165.599 157.413 165.484C159.088 157.655 160.269 149.727 160.949 141.749C154.885 142.551 143.443 141.978 138.41 140.029C137.224 148.687 135.353 157.238 132.814 165.599Z" fill="white"/>
<path d="M48.0475 235.641C47.721 234.226 47.8826 232.741 48.5058 231.429C49.1291 230.118 50.1772 229.056 51.4795 228.418C54.5683 226.928 86.2612 226.698 93.7035 226.354C94.0467 224.52 95.0763 219.59 96.5635 213.169C77.8356 209.402 58.8019 207.368 39.7025 207.092C37.9865 207.092 38.6729 205.485 39.7025 205.485C42.4481 205.371 45.1937 205.371 47.9393 205.371C50.0551 196.985 53.2071 188.896 57.3222 181.293C57.7798 180.491 58.8094 180.949 58.4662 181.752C54.9214 189.385 52.0868 197.33 49.9985 205.485C65.8238 206.091 81.5808 207.893 97.1355 210.876C99.6523 199.982 103.084 185.994 106.287 176.592C109.033 168.221 113.38 166.157 119.217 165.813C123.028 165.647 126.843 165.609 130.657 165.698C131.114 164.322 131.572 162.946 132.03 161.227C126.424 152.054 114.41 143.912 98.0507 142.651C92.4451 149.303 76.7702 148.615 68.1902 140.472C63.1566 141.045 46.5582 144.714 36.6137 155.953C22.6548 172.004 3.66443 208.812 12.8164 228.189C17.3758 238.057 42.8891 236.221 48.0475 235.641Z" fill="white"/>
<path d="M128.238 73.2881C128.521 78.7729 127.66 84.2565 125.71 89.3891C123.76 94.5218 120.764 99.1907 116.913 103.098C114.739 105.277 116.57 105.735 118.743 104.933C129.039 100.92 138.295 89.1103 140.937 78.5601C141.394 76.7256 139.793 76.8402 139.564 77.9868C138.16 83.1736 135.709 88.0169 132.364 92.2176C129.019 96.4183 124.851 99.8872 120.116 102.41C127.12 94.5108 130.776 84.1869 130.308 73.6299C130.194 71.9101 129.965 71.7955 127.906 71.4515C110.286 68.6998 103.765 43.3592 131.566 33.155C156.393 24.0952 175.5 40.9514 171.151 57.9223C167.948 70.6489 154.448 72.598 143.35 72.598C141.862 72.598 141.977 74.4325 143.464 74.4325C154.904 74.6618 167.948 73.0567 172.18 61.5913C181.332 37.1679 155.707 23.8597 134.083 29.9447C99.0643 40.0363 107.873 72.4855 128.238 73.2881Z" fill="white"/>
</svg>
