<svg width="94" height="27" viewBox="0 0 94 27" fill="none" xmlns="http://www.w3.org/2000/svg">
<g clip-path="url(#clip0_940_1418)">
<path d="M89.6188 23.5105C91.4629 23.5105 92.7692 23.1794 93.7425 22.4662V19.2313C92.7436 19.919 91.5397 20.352 89.8493 20.352C87.0062 20.352 85.828 18.1615 85.828 14.6973C85.828 11.0549 87.2624 9.19544 89.8749 9.19544C91.4117 9.19544 92.9229 9.73034 93.7169 10.2398V6.87751C92.8716 6.41902 91.4117 6.08789 89.4139 6.08789C84.3169 6.08789 81.6787 9.73034 81.6787 14.8247C81.7043 20.403 84.2912 23.5105 89.6188 23.5105ZM64.6972 22.0332V18.7983C63.4678 19.6388 61.3675 20.3775 59.4466 20.3775C56.5267 20.3775 55.4253 19.002 55.246 16.2002H64.8765V14.1115C64.8765 8.27846 62.2896 6.08789 58.3196 6.08789C53.4531 6.08789 51.1479 9.78129 51.1479 14.8502C51.1479 20.6832 54.0422 23.5105 59.1136 23.5105C61.6493 23.5105 63.519 22.8228 64.6972 22.0332ZM28.1474 6.39355V13.0162H22.8199V6.39355H18.8242V23.1794H22.8199V16.1747H28.1474V23.1794H32.143V6.39355H28.1474ZM50.149 20.0209H48.3817V6.39355H36.7534V7.81997C36.7534 11.9209 36.4972 17.219 35.0885 20.0209H33.8079V27.0002H37.4962V23.1794H46.4351V27.0002H50.1234V20.0209H50.149ZM77.4269 23.1794H81.9605L75.5572 14.1369L81.1921 6.39355H77.1708L71.5359 14.1369V6.39355H67.5403V23.1794H71.5359V14.9266L77.4269 23.1794ZM58.2171 9.19544C60.1893 9.19544 60.8041 10.8256 60.8041 12.9398V13.2709H55.246C55.3485 10.5964 56.3218 9.19544 58.2171 9.19544ZM44.3861 20.0209H38.7512C39.8526 17.4992 40.1599 12.9143 40.1599 10.0105V9.5011H44.3861V20.0209Z" fill="#938CA2"/>
<path d="M15.4959 23.1792H11.4234V3.13302H9.60491C6.27521 3.13302 4.53352 4.78868 4.53352 7.25943C4.53352 10.0613 5.73733 11.3604 8.2218 13.016L10.2708 14.3915L4.37984 23.1792H0L5.30191 15.334C2.25395 13.1689 0.537875 11.0547 0.537875 7.48868C0.537875 3.03113 3.66267 0 9.57929 0H15.4703V23.1792H15.4959Z" fill="#938CA2"/>
</g>
<defs>
<clipPath id="clip0_940_1418">
<rect width="94" height="27" fill="white"/>
</clipPath>
</defs>
</svg>
